<mxfile host="Electron" agent="Mozilla/5.0 (X11; Linux x86_64) AppleWebKit/537.36 (KHTML, like Gecko) draw.io/25.0.2 Chrome/128.0.6613.186 Electron/32.2.7 Safari/537.36" version="25.0.2">
  <diagram name="Page-1" id="l-K1GQTaozo3A5htPTIO">
    <mxGraphModel dx="307" dy="476" grid="1" gridSize="10" guides="1" tooltips="1" connect="1" arrows="1" fold="1" page="1" pageScale="1" pageWidth="850" pageHeight="1100" math="0" shadow="0">
      <root>
        <mxCell id="0" />
        <mxCell id="1" parent="0" />
        <mxCell id="uzLd8xs1DvLDweWQHwrh-19" value="" style="rounded=1;whiteSpace=wrap;html=1;dashed=1;fillColor=none;arcSize=5;" vertex="1" parent="1">
          <mxGeometry x="120" y="80" width="200" height="200" as="geometry" />
        </mxCell>
        <mxCell id="uzLd8xs1DvLDweWQHwrh-18" value="" style="shape=cylinder3;whiteSpace=wrap;html=1;boundedLbl=1;backgroundOutline=1;size=5.232558139534859;" vertex="1" parent="1">
          <mxGeometry x="196.25" y="190" width="50" height="50" as="geometry" />
        </mxCell>
        <mxCell id="uzLd8xs1DvLDweWQHwrh-17" value="storage" style="edgeStyle=orthogonalEdgeStyle;rounded=0;orthogonalLoop=1;jettySize=auto;html=1;" edge="1" parent="1" source="uzLd8xs1DvLDweWQHwrh-6" target="uzLd8xs1DvLDweWQHwrh-18">
          <mxGeometry relative="1" as="geometry">
            <mxPoint x="222.5" y="180" as="targetPoint" />
          </mxGeometry>
        </mxCell>
        <mxCell id="uzLd8xs1DvLDweWQHwrh-6" value="" style="rounded=1;whiteSpace=wrap;html=1;" vertex="1" parent="1">
          <mxGeometry x="141.25" y="110" width="160" height="40" as="geometry" />
        </mxCell>
        <mxCell id="uzLd8xs1DvLDweWQHwrh-4" value="" style="shape=image;verticalLabelPosition=bottom;labelBackgroundColor=default;verticalAlign=top;aspect=fixed;imageAspect=0;image=data:image/png,iVBORw0KGgoAAAANSUhEUgAABJ4AAAGxCAYAAAAj0XyuAAAACXBIWXMAAEJvAABCbwFRKOG9AAAgAElEQVR4nO3dzXUbSZY24Bvfqb00Foi90VZoC4S2oNQWFNuCVltQKQuGZUGRFoxkQSctGHKLTZMWjGhBfAukqlgqigJIJG5k5vOcw6P6kRAvQRAiXtyILLXWAAAAAIBD+3/ZAQAAAACYJ8UTAAAAAKNQPAEAAAAwCsUTAAAAAKNQPAEAAAAwCsUTAAAAAKNQPAEAAAAwCsUTAAAAAKNQPAEAAAAwCsUTAAAAAKNQPAEAAAAwCsUTAAAAAKNQPAEAAAAwCsUTAAAAAKNQPAEAAAAwCsUTAAAAAKNQPAEAAAAwCsUTAAAAAKNQPAEAAAAwCsUTAAAAAKNQPAEAAAAwCsUTAAAAAKNQPAEAAAAwCsUTAAAAAKNQPAEAAAAwCsUTAAAAAKNQPAEAAAAwCsUTAAAAAKNQPAEAAAAwCsUTAAAAAKNQPAEAAAAwCsUTAAAAAKNQPAEAAAAwCsUTAAAAAKNQPAEAAAAwCsUTAAAAAKNQPAEAAAAwCsUTAAAAAKNQPAEAAAAwCsUTAAAAAKNQPAEAAAAwCsUTAAAAAKNQPAEAAAAwCsUTAAAAAKNQPAEAAAAwCsUTAAAAAKNQPAEAAAAwCsUTAAAAAKNQPAEAAAAwCsUTAAAAAKNQPAEAAAAwCsUTAAAAAKNQPAEAAAAwCsUTAAAAAKNQPAEAAAAwCsUTAAAAAKNQPAEAAAAwCsUTAAAAAKNQPAEAAAAwCsUTAAAAAKNQPAEAAAAwih+yA/CVq9d9dgSAI+tjtemyQwAAAIeneGrPTUT8lB0C4Ii67AAAAMA4bLVrT5cdAOCILmO16bNDAAAA41A8tWa1uYmIi+wYAEfSZQcAAADGo3hqU5cdAOAITDsBAMDMKZ5aZOoJWIYuOwAAADAuxVO73kfEXXYIgJGYdgIAgAVQPLVqtfkcEWfZMQBG8j47AAAAMD7FU9vOwtQTMD8XsdpcZYcAAADGp3hqmaknYJ667AAAAMBxKJ7aZ+oJmJOL4QIKAADAAiieWmfqCZiXLjsAAABwPIqnaTD1BMyBaScAAFgYxdMUmHoC5qHLDgAAAByX4mk6TD0BU/aLaScAAFgexdNUbKee3mfHAHiCuzDtBAAAi6R4mpLV5jwibrNjAOzpbCjPAQCAhVE8TU+XHQBgD3fhjDoAAFgsxdPUmHoCpsW0EwAALJjiaZq67AAAOzDtBAAAC6d4miJTT8A0mHYCAICFUzxNV5cdAOARt2HaCQAAFq/UWrMz8FRXr28i4lV2DIAH/GOYzgQAABbMxNO0ddkBAB5wq3QCAAAiFE/Ttn1hd5kdA+ArXXYAAACgDYqn6euyAwDcY9oJAAD4jeJp6labPkw9Ae3osgMAAADtUDzNQ5cdACBMOwEAAF9RPM2BqSegDe+zAwAAAG1RPM1Hlx0AWLTLWG0+ZocAAADaoniaC1NPQK4uOwAAANAexdO8dNkBgEW6HMpvAACAP1A8zYmpJyBHlx0AAABok+JpfhzuCxyTaScAAOCbFE9zs9pcRcRFdgxgMbrsAAAAQLsUT/PUZQcAFsG0EwAA8CjF0xytNjdh6gkY32l2AAAAoG2Kp/nqsgMAs3YxlNwAAADfpHiaK1NPwLi67AAAAED7FE/z1mUHAGbJtBMAALATxdOcmXoCxtFlBwAAAKZB8TR/XXYAYFZMOwEAADtTPM3d9gXih+wYwGx02QEAAIDpUDwtw1lE3GWHACbvg2knAABgH4qnJVhtPse2fAJ4qrvwPAIAAOxJ8bQcpp6A5zgbSmwAAICdKZ6WwtQT8HSmnQAAgCdRPC2LqSfgKUw7AQAAT6J4WhJTT8D+TDsBAABPpnhaHlNPwD5MOwEAAE+meFoaU0/A7m5jtemyQwAAANOleFqms4i4zQ4BNK/LDgAAAExbqbVmZyDD1evTiPg1OwbQrNtYbU6yQwAAANNm4mmpVpvzMPUEfFuXHQAAAJg+xdOyddkBgCbdDuU0AADAsyielszUE/CwLjsAAAAwD4onuuwAQFNMOwEAAAejeFo6U0/AH51mBwAAAOZD8USEqSdg6zJWmz47BAAAMB+KJ0w9AV902QEAAIB5+SE7AM14HxH/kx1iklabMvoaV6/rnn/iMlab9RhRfnP1eh0R/97zT32I1aY7fJh7rl53EfHzqGvMk2knAADg4Ew8sbXafIyIy+wYQJouOwAAADA/iifu67IDAClMOwEAAKNQPPG77QtPU0+wPF12AAAAYJ4UT3ytyw4AHNUn004AAMBYFE/8kaknWJr32QEAAID5UjzxkC47AHAUF7Ha3GSHAAAA5kvxxJ+ZeoKl6LIDAAAA86Z44lu67ADAqEw7AQAAo1M88bDt1NOn7BjAaLrsAAAAwPwpnniMQ4dhnkw7AQAAR6F44tu2L0wvsmMAB3UXpp0AgESllK6UUif+0WXfjzAViie+p8sOABzUmWknAADgWBRPPM7UE8zJXUScZYcAAACWQ/HELrrsAMBBnMVq8zk7BAAAsBw/ZAdgAlabm7h6fRERP2VHAZ7MtBPfVUo5iYiT3BQRtdY+O8McNfD1vam13iSuDwAkUDyxqy4UTzBlpp3YxbuI+O/sEKWUv9daP2bnmKGziPgxcf1/RMR54voAQAJb7diNs55gykw7sas+O8BgnR1gpjJLp4gIZSIALJDiiX10sX0BC0yLaSd2Umu9iojb7ByxnbzigEop6+QI17VWz0MAsECKJ3a3nXoyNQHTchurTZcdgknpswNExKvhPCIOJ7vMM+0EAAuleGJfZ2HqCaakyw7A5LRSEKyzA8zMOnn9Vh5XAMCRKZ7Yz3a7jqknmIbbWG3Os0MwOX12gEH2hM5sDNNjbxIj3A3bOAGABVI88RSmnmAauuwATM9wDs91do7In9CZk3Xy+qadAGDBFE/sz9QTTIFpJ56jhaLgRQMHYs/FOnn9Pnl9ACCR4omnMvUEbeuyAzBpLRRPEbbbHUr2/djK4wkASFBqrdkZmKqr111E/JwdA/iT61htVtkhmLZSyueIeJEc47rW6rH8DKWUVUT8b2IEX0PgT0opXUz/dcSHWmuXHQKmwMQTz2HqCdr0PjsAs9DClMqbUsrL7BATZ9oJAEileOLptmc9ddkxgD+4jNWmzw7BLPTZAQbZxcnUrZPX75PXBwCSKZ54ntXmLCJus2MAv+myAzAbrUyqrLMDTNUwLfY2McJdrbVPXB8AaIDiiUPosgMAEWHaiQOqtX6OiOvsHGHi6TnWyev3yesDAA34ITsAM7DanA8Hjb/KjgIL12UHYHY+RsSb5AwvSimrWutVco4pyi7tWpmaA1isUspJRJxkrW/ylQjFE4fTRcSv2SFgwUw7MYaP0cZVh9YRoXja3zp5/T55fQAiTiP37/KSuDaNsNWOw1htzsNZT5Cpyw7A/AxTRi1cvTR7cmdyhne4MyeRr2utN4nrAwCNUDxxSF12AFioC9NOjKiF7VJvh4Oy2V12Wdcnrw8ANELxxOGYeoIsXXYAZq3PDjBYZweYmHXy+i0UlgBAAxRPHFqXHQAW5iJWm5vsEMxaKwVC9gTP1PyYuPadw2QBgC8UTxzWduqphctvw1J02QGYt1rr52jjeX2dHWAqSinr5Ah98vpA42qtXa21PPcj+/MAdqN4YgzvswPAQph24lhamHp6NRyYzfdlT4e18HgBABrxQ3YAZmi16ePq9WVEvM2OchSrzfjvtly9rnv+ictYbdZjRPnN1et1RPx7zz/1IVab7vBh7rl63UUbl38/hi47AIvxMdr4vnoXEWfZISZgnbx+n7w+ANAQE0+MpcsOADNn2omjqbVeRcRddo7IL1SaN0yFvUmMcF1rvUlcHwBojOKJcWwv7X6ZHQNm6i5saeX4Wtg+lXlg9lSsk9fvk9cHABqjeGJMXXYAmKmzWG0+Z4dgcfrsABERpZTs84tat05ev4WCEgBoiOKJ8Zh6gjHchTNuyNFKobDODtC4zGLurtbaJ64PADRI8cTYuuwAMDOmnUhRa/0cEdfZOULx9E2llFVEvEiM0CeuDQA0SvHEuEw9wSGZdiJbC1NPb4YDtPmz7G2ILTw+AIDGKJ44hi47AMyEaSeytVIsrLMDNGqdvH6fvD4A0CDFE+PbTj1dZMeAiTPtRLpa61VsH4vZsid7mlNKeRkRbxMjXNdabxLXBwAapXjiWLrsADBxnWknGtFnB4j8yZ4WrZPX75PXBwAapXjiOFabmzD1BE91G6uNaSda0cJ2uxfDQdr8LnsKrIXHBQDQIMUTx9RlB4CJ6rIDwD19doBBdtHSmnXi2ne11j5xfQCgYYonjsfUEzzFbaw259kh4IvhHJ/r7ByhePrNcJW/V4kR+sS1AYDGKZ44ti47AExMlx0AHtBnB4iIN8OB2uSXcH3y+gBAwxRPHJepJ9iHaSda1cp5PtmFSyvWyeu38ngAABqkeCJDlx0AJqLLDgAPGc7zucvOEfmFSyt+TFz7dth+CQDwIMUTx7edevolOwY07tq0E43rswOE4ilKKevkCKadAIBHKZ7I0kUb75ZDq95nB4DvaKFweFVKWWWHSJa93bBPXh8AaJziiRyrzeeIOMuOAY26jNWmzw4B39FnBxisswMkW2cuXmttoYAEABqmeCLTWZh6god02QHge4Zzfa6zc0T+xE+aUspJRLxJjPApcW0AYCIUT+Qx9QQPMe3ElPTZASLibXaAROvk9fvk9QGACfghOwCLdxbbs2xeZAeBRnTZAWAPHyPin9khSinvFrrla528/qzv8+Hg9pOvPiL2KztvI+Jm+Of+3q83rgYIwFIonsi12nyOq9dnEfFzdhRogGknJqXW2pdS7iL/zYN1zLwE+YbMbYa3cypOhkPq1xGxGj4OtYXx1fAR8Xth9fOw5l1EXMW2iOprrf2B1gSApiieaIGpJ9hyJTumqI+IH5MzvIuFff8MRUnm35uTLvpKKS9j+7hZD79m3JcvYltGvY2In0spEdtzs/qI+DinYu9bhsfxy6TlP9dar5LWPphhMi+Lyb0DGp6XxrhS68kIt7mzpMfoLL6/50TxRD5TTxARcRGrjb8gmaKPkV88vSqlnCzsBVD2oep98vpPUkp5FxGnkf+Y/ZYfh4//LqVcx/bNuY+11s+5sUZzFnnntF1G/nbVQ/h34tofwhEBh7SK3K/nWDI+p7l8f8+G4olWTHfq6ep1zY7wgLeN5vo5rl4rGB/WZQeAJ+qzAwzexbIuWLHOXHxKZ2oNV/87jen9nPEmIn6NiLNSyseI6BZWrgIwE65qRxu2V7hb1DYJuOciVpub7BDwFMML4evsHLGgdzaH7RiZV/P7lLj2zkopJ6WU84j4T2ynqqdUOt33IiJ+ioj/lFLOhyINACZD8UQ7Vpvz2F79BZamyw4Az9RnB4gFFU+R/7n2yes/6qvC6afkOIemgAJgchRPtKbLDgBHZtqJOWhh29WL5EN2jyn7fKcWvt5/Ukp5WUrpYp6F09d+ioir4fMFgKYpnmiLqSeWp8sOAM81XAb+LjtH5Bcyx7JOXPu2xXOGhtLxKpZ1oZIXsb0a3tVwdTgAaJLiiRZ12QHgSH4x7cSM9NkBIn8L2uiG7VWvEiM0Ne00TDmdxfaqSZn3S6Y3EfG/pp8AaJXiifaYemIZ7kLJyry0UEi8WcC5N9lTXX3y+r8Zpnz6iPhncpRW/FxK6YfD5wGgGYonWtVlB4CRnQ1Xc4S56LMDDNbZAUa2zly81tpCwRillHexfcy9SY7SmrexPfvJ1jsAmqF4ok2mnpi3u4g4yw4BhzSc+3OdnSPmXzz9mLj2p8S1f1NKOY2I/4ntGUf82auI6JVPALRC8UTLuuwAMBLTTsxVnx0g8reijaaBq/b1yevHcJ7Tr9k5JuBFKJ8AaITiiXZtp54us2PAgZl2Ys767AAR8WLGL7azS7XUbXallPNwntM+lE8ANEHxROu67ABwYKadmK1Wzv+J/IJmLOvEtW+H7ZQphiu2/ZS1/oQpnwBI90N2AHjUatPH1evL2B6Wye7uIuJq5DVehkNd92XaiSX4FLnnEEXM8Jyn4Wp9mc+5aaXicKbTz1nrz8Bv5VNmeQjAcimemIIuIv6dHWJirmK1WY+7wut1+Lrs671pJxagj/zi6W0p5WWtdU7fb+vk9fuMRYdzrZzp9HwvIuJjKWU9s+8LACbAVjvat9r04awnpu92OLcM5q6V7Xbr7AAHtk5evz/2gsOUVyuPpzl4E6ZuAUigeGIquuwA8ExddgA4hmErz212jpjfOU+Zn89l0pTMeWwndTicn0opc/veAKBxiiemwdQT02baiaVpYUplnR3gUIaDoTMLmKN/PYfDxJ3vOI7zUsrL7BAALIfiiSnpsgPAE3XZAeDI+uwAEfFqRlfyyp5Q6Y+52PB1c5j4eF7EdpoMAI5C8cR0mHpimkw7sTi11hYmniLmM/W0Tlz7ttY69lVSvzaVc4iuY/tzyf2PqfhxOLgdAEbnqnZMzWlE/Cc7BOyhyw4AST5F/tXt1jGdEuNBw5aozC1n/TEXK6WcRntb7O5iez/0EXEVEVffO/NqKHVOYvsYfBdtnlV1FhFzmQoEoGEmnpiW1eYmIi6yY8COLk07sWB9doDIL74OYZ28/rGn17ojr/eYy4j4e631Za31Xa31rNba73LQ+vD7zmutp7XWlxHx99iWsS15MxR9ADAqxRNT1GUHgB112QEgURPb7WZwBa918vr9sRYaSpBXx1rvEZcR8dda6/pQ20ZrrR9rre8i4i/R1pa8LjsAAPOneGJ6TD0xDZfDuWSwSLXWm4i4zc4R+cXNc2UWZ5e7TPccUHfEtR5yF9sJp/VY51rVWm9qrevYTkDdjbHGnl6ZegJgbM54Yqq6iPgpOwQ8ossOAA34GBH/TM6wTl7/yUopJ5E7AXS0qbUGpp2uI+LdUJiOrtb6cTgH6jwi3hxjzUechqvcQQs+xzgTkSeR+/yaMeV57Iti8B2KJ6ZptbmJq9cXoXyiTaadYKuP/OLpTSnl5FiFwoFlbxPsj7jW6RHX+tp1RKyPPN0VtdaroXzqI7d8ejvh7xGYjWHScn3o2y2ldBHx86Fvd1fDlCcLZ6sdU9ZlB4Bv6LIDQAsOdT7OAayzAzzROnHt27G2m31tmOzKupJdSun0xbDuu8jfdvc+eX0AZkzxxHQ564k2mXaCP2rhSl7Zk0NPtU5cuz/iWlmlx10klk5fDJNG2Y/R7PUBmDHFE1PXZQeAr5xmB4DG9NkBYoITT8MWrBeJEY45rZZVerzLLp2+qLX2kftm2qtSyipxfQBmTPHEtG2nnj5kx4DBxfCYBH7Xwna7F0ORMyXZEyj9MRZJPED9l6Hsacn7yN1yd5q4NgAzpnhiDs4i/2wEiDCBB38ybCO6zc4R05t6WieufXnESaCMgu0uGny+Hu7z88QI68S1AZgxxRPTt9p8jm35BJlMO8G3tTD1lD1BtLNSysvIvcrZMb9e6yOu9cVZK1vsHpD588yb4bEHAAeleGIuTD2RrcsOAA3rswPEtF5UZ5dk/RHXWh9xrS+afbNqmBC8ToywTlwbgJlSPDEPpp7IZdoJHlFrbWHiKSK/0NnVOnHt21rr1TEWGg6zPvYB6hcNTzt9kfn94oBxAA5O8cScmHoiS5cdACbgMjtATGeaI7Mg64+4VkbJ0UoJ+pg+ce114toAzJTiifkw9USOD6adYCctvOBvfuIpaQrovmN+nfqI+FtE/Cu2V6i9iG1BOdZWs7uGpu++KflqeyeJawMwUz9kB4ADO4vt5Ygzf2hnOe5C2Qm76rMDRMSLUsrqWFvJnmidvH5/rIWG84xuHluzlLIe/vHLr6uIeBnbguTVnkt+c50G3UXOzzL73qcA8F2KJ+ZltfkcV6/PIuLn7CgswtkwaQd8R631qpRyG/kvbNcR0XLxlDmVddna+Uf3pn/6h/7/cGD8lzLqy9a99fDr19NjD95Go64i4m3GwqWUdfLUFQAzo3hijs4i4jTyX9xkehlXr9cjr7H0A0hNO8H++oj4KTnDu2j0e3coUVLKhkHz29C+NhRl/fCvD+YvpZzEdkKq5cIRAGZL8cT8bKeeuoj4NTtKojcR8e/sEDNn2gn29zHyi6e3pZSXrU32DNbJ6/fJ64/i3pY+dnOSHQCAeXG4OPO02pxHxG12DGbLtBM8TZ8dYLDODvAN68S17xo/+4rjOckOAMC8KJ6Ysy47ALNl2gmeYJgyuszOEe0WT5nnO01umx0AMA2KJ+bL1BPjuA3TTvAcLRQcmQXPg4ZziDLPJuwT12ZQSlmVUt6HqSMAZsQZT8xdF8s+64nD60w7wbP02QEi4lUp5WQ4+6cV2WVYC4Xgoty7It96+Mg8WB4ARmPiiXkz9cRh3Q6PKeCJhnOEWnhezi56vrZOXPu60cPWZ6WUclJKOS2lnJVSriLi/2J7IZCfQ+kEwIyZeGIJujD1xGF02QFgJvrIv7rdOtraNrtOXNu00whKKev4faJpFblbKQEgjeKJ+VttzuPqdRd+4ON5TDvB4XyM/OLpx+T1fzMUFC8SIyienmnYNreO34smE0wAMFA8sRSnsR1nh6fqsgPAjPTZASK2hU+ttc/OEbnb/u6G7Y/sYTgMfh2/l01v8tIAQNsUTyzDatPH1evL8A4kT2PaCQ6o1vq5lNLCc/K7aKMEWyeubdppB19tm1tH7oQaAEyK4okl6cLUE0/zPjsAzNDHyC+e1snrf9milTkt0yeu3STb5gDgsBRPLIepJ57mMlYbEwFweH12gIh4U0o5qbXeJGbIvrre4p/fbJsDgHEpnliaLkw9sZ8uOwDMUa31qpRyG/kXflhHxHny+lmua62fE9dPMRRN78K2OQA4iv+XHQCOarXpI+IyOwaTcTk8ZoBx9NkBIn+7XebE0yKmnUopL0sp70op56WUm4j4T0T8d2yvbKh0AoCRmXhiibow9cRuuuwAMHMfI+Kn5AxpxU8pZRW5xcdsi6fhnKZ3w8ePyXEAYNFMPLE8pp7YjWknGF+fHSAiXgwFUIZ10roREXe11qvE9Q9umGw6LaV8jIj/i4hfQ+kEAOkUTyxVlx2A5nXZAWDuhvOFWngjIGvqyTa7AyilrEop5xFxE8omAGiO4oll2k6yfMqOQbNMO8HxtFCAHL0AGraCZV5ltU9c+yCGc5v6iPjf2G7ZdF4TADRI8cSSvc8OQLNOswPAgvTZASLizVAEHdP6yOt9rYXC70mG7XQ3EfE/kVveAQA7UDyxXKvNTURcZMegORfDYwM4guGcodvsHHH8IujY6913PWxznJRSyrqUchXb7XSvsvMAALtRPLF0XXYAmtNlB4AF6rMDxPG32znfaUfDoeEfY3tF2jfZeQCA/SieWDZTT/yRaSfI0WcHiCNOIJVSTiJ3YmcyxVMp5TS2h4Y7MBwAJkrxBCZc+F2XHQAWqoUi5FUpZXWktTKnne6G7Y1Nuzfl9Gs4NBwAJk3xBKae2DLtBEmG84aus3PE8aaejrXOQ1oo+R41FIB9LHPK6Ta2P5O0cO4ZAByE4gm2uuwApLoLjwHI1kIhcqxJpPWR1nlIn7j2d90rnZZyltN1RPwSEX+PiP+qtZ7UWk9ju70QAGZB8QQRpp44M+0E6Voont6OvUApZR25W8dauJ8fNJzn1Me8t9ZdRsSHiPhbbIumVa31fa314xSvNAgAu/ghOwA0pIvtu91z/oGXP7uLiLPsELB0tdarUspdJD8Hl1Le1VrHLGcyz3e6brXcGCadfs3OcWB3sS3SriKir7X2qWkAIImJJ/hiO/GigFies1htmnwhBgvUwjTOeuK3/5g+ce1vure9bupuI+JTRPwrIv5aa31Za31Xa+2UTgAsmeIJ/ugstu9QsgymnaAtfXaAGHEiqZTyMnLPLmqh2PuD4T75GNOcNv5yEPg/IuIvw/lM72qtZ1O4ciDTV0o5yc4AsAvFE9y3nXxRRCyHaSdoSwvFyKsRX8xlbrO7a3Tq5jwiXmWH2NH9g8C/FE2ntdbzWutNbjQW6iQ7AMAuFE/wZ6aelsG0EzRmOH/oOjtHjLcdbqzb3UWfuPaDSinvI+LH7ByPuIvtRNOXK87dPwj8JjcaAEyH4gm+ZuppKUw7QZtamHoaazIpc+Kphfv1N8MWuy47xwN+K5uGM5pOXXEOAJ5H8QQPM/U0b7ex2nTZIYAHtVCQrA99g8MB2pnnGPWJaz/kLNo61+k2tmc1fdk+18LjEABmQfEEDzH1NHdddgDgYcOhzNnF/4tSyvrAt3no29vHdUtbw4YztH5KjvHFXUT8aziv6dxkExOzyg4AsAvFE3ybqad5uo3V5jw7BPCoFqZNDr0tLnObXZ+49kO67ACDT7GdcPJGE1P1MjsAwC4UT/At26mnLjsGB9dlBwC+q88OEAecUBrOM3p7qNt7ghaKvIj47b7ILOG++Fet9Z0JJybOxBMwCYoneMxqcxbbcx+YB9NOMA0tFCVvhpLkENYHup2nuKu19onrf+008s92+scEppxOsgMwCSfZAQB2oXiC7+uyA3AwXXYA4PuGKZTr7BxxuMmc9YFu5yn6xLUfcpq8/oda63lyhl28yg7AJLzJDgCwC8UTfM92QsbU0/SZdoJpaWHqaX2g28ncWtbC/RgRvx0qnvlC+bLW2iWuv5PhfoJHjXABBIDRKJ5gN112AJ7tNDsAsJcWCpNnF0ZDiZA5vdInrv21dfL6XfL6uzrJDsAkON8JmAzFE+zC1NPUXcZq02eHAHZXa72K/CuLviilPPfFXea003Wt9SZx/a+tE9e+bOysq8esswMsxNSvCLfODgCwK8UT7K7LDsCTddkBgCdpYeppnfznn6NPXPsh68S1zxPX3pdJluOY+vlIP2YHANiV4gl2Zeppqkw7wXT12QHi+RNL60OEeKIWirv7bDnczTo7AG0rpWROUgLsTfEE++myA7C3LjsA8EQxl5gAABJzSURBVGQtFCdvSylP2pIzHP774rBxdnbX0tay5IOQbxvbcvhNw9bOrMfM4kz4IPfT7AAA+1A8wT62U08tXOKb3Zh2ggmrtX6ONp5z10/8c5lTCX3i2g85SVz7JnHtfZ1mB1iYk+wA+xqKcNvsgElRPMH+3mcHYGdddgDg2VqYenpqgbQ+ZIg9tXC/3XeSuPZN4tr7WtoWqj55/Smep+XnUGByFE+wr+0EzWV2DL7rk2knmIU+O0A8oUAaphIyDy/uE9duzU12gF0M2xEzz8FaokkVT8PziuIJmBzFEzxNlx2A7/KDGczAcE7RXXKMV084CyZzcuW6wTONJvUCP4m/t45vnR1gT+/DGWDABCme4ClMPbXuIlabm+wQwMH02QFi/yJpPUaIHfWJa3/Lkw5on8HaOxmKzSWe23OTvP5TSuUUpp2AKVM8wdN12QH4pi47AHBQLZxXtN7z92dOPLVwf7VkCtNW59kBktxkB4jpHOh+HqadgIlSPMFTmXpqlWknmJ8+O0DsMY1SSllF4gvEYXsivzvJDvCYUsq7iHibnSPJ5+wAMYHiaXiMLHEijhkYpvVYOMUTPE+XHYA/6bIDAIc1nFd0nZ1jePG3i/WYOb7jU+LarXrV6gufIddZdo4stdar7AyxfXycZof4lmEr4HluCniWKUydMjLFEzyHqafWmHaC+eqzA8TuhVLmNrs+ce2WZX5NHnMermR3mx0gGn3TaigmP4YtdkzbSXYA8ime4Pkc9NiGu/C1gDlr4dyi9Y6/L3PbVAv300Oyt1SdJq//J6WU92H7VEQb5zy9Gr4erfkYEW+yQ8AzrbMDkO+H7AAweavNVVy9voiIn7KjLNxZrDbZL2yAkdRa+1LKXeS+8/+mlNJ95/ecHCHHt9wO2xJbdBW5JcvbUsq6lfOvhq1d/52doxF9tHHGVVdK6VvY/jdMOp1HG/cLPNe7UsrLWquf0xdM8QSH0YXiKdNdLPiMDFiQPvInRH5OXv8xrU47teIsGjhrZCidfs3O8Yhjn4eVXvQMXkTEx1LKKvMF8lA69WHSaQrSn08m4kVsXyu1OFXIkdhqB4ewPVfoIjvGgpl2gmVQrDyuzw7wiD47QOw2sTaqYTtXy6VTxPFfTPdHXu8xryKiHw70PrpSyjq2Ww+VTtPwY6sXLvjKTXaAiPhny4f4Mz7FExxOlx1goUw7wXL02QFaVmttuZhr5c2BnzNe/JRSXpZSzmMa2+veHrN4GaaLWjhg/Is3EXE1lEBHMTw+ziLi3+Eg8ak5n0D5dJMdYPBrKeU8q9gll612cCirzY2znlKYdoKFqLXelFKuwzTAQz5lB3hMrfWqlJId44tfh/NGjvKmxVBgnMfzrl53HdstcMe6Al4/FCGPbYO7OeCZYn209fPTi4j4dynlIiLej7X1bigs3g8fTymc7mL7xud6+FBaHd+PsS0qz+N5b458buF8sSP4KSJ+KqXcxvb5ZazP+abWej7SbfMEpdaanQHm4+r1SUT8JzvGgtxFxIniCZZjeDH8z+wcDfrXsYqUpyql9NHWYcmfIuJ0xFLhJA53QPRfhuL1XUT8zwFu7xA+1Fq7Q9xQY5/X1+5iu8337FDFwPDYeB/bqy0+pyy6qLWeDreZ8dx4sMfAU5VS5vJi9rLWuh7jhoeC8//GuO2GjXZ/8jS22sEhOevp2DqlEyxOy9vJMk3hfumzA3zlx4i4KaV0h9wqU0p5N5Rs/4nDlE4XDV+t8CAa3yb6IrZTGv9bSrkppZwNX+OTXW+glHIy/JmzUspVbB8b/4znTyh19/7ZQdc8yNXkaIGtdnB4XbQ1Lj5Xt7HaNP3uPnB4tda+lHIXtpTcdzuRYuJjtHdVwBexzfTzsK3qY0T0+7xQGwqIVUS8Gz4O/djs7v3z+sC33ZJPkX/Vyu95FdvC6J8REcP20et4/Ayzsab8vi4kFU885jLamjhlYRRPcGjbs55+CVtBxtZlBwDS9NH+C9Rjanla5DfDOU+3cbxzivb10/ARQ86b+PaU1sm9jzE/nyWVC+cxze/rrDPnzr/8wzCxp4znMVeheCKR4gnG0cXz9+3zbbex2pxnhwDSfIxpvkAdS58dYA/n0d7U00NeDR+ZL9S+HBx932xfONZaP5pm3NllrbW/9+9zLiQ5jCUcXE7DnPEEY9ieO2Qb2Hi67ABAqj47QEsaPx/na+fZASbk7P60UyllCeWCn512c/rVv58kZGBa+uwALJviCcZzFtt3Kzks006wcMOL8evsHI34lB1gH8PXzkU4vu82/lzCnCTkOLbz7AAT8NBh8ycJOVrh74Id+HuTbIonGIupp7F02QGAJvTZARrRZwd4gi47wAScPnDA+ewnnhST33UXEe8f+O8nR87RElds292UpmOZGcUTjMvU02Fdm3YCBn6A3prc/aBc+K5fvjq/Z2m67AAN675xxcWTYwdpSJ8dYELOswOwXIonGJOpp0N76F0+YIGGF+ZLL/ZvH9hyMxVd+Po95Da+XbycHC9GnuEx/Ut2jgZd11q/9TPlyTGDNMah2Tsavrcus3OwTIonGJ+pp8O4jNWmzw4BNKXPDpBsctNOXwwvgLrkGC16942JlohllQtd+Nnpa6eP/L9XxwrRoD47wMR02QFYJsUTjM3U06F02QGA5vTZAZL12QGeY5je8O777/5VazW9ERFD+XaanaMhHhvfMDxWHJq9o2Fa2PMuR6d4guMw9fQ8pp2Ah0x24ucQaq1z+Pzfhb8fI7ZXKvvem1SLKh6Gx/ekrto4kk+PPTZKKbM/dH4H59kBJsbRFRyd4gmOYTv15En+6brsAEB7hu1at9k5ksziBfkwrbCOZZdP17XW0x1+3xKv3nUay/0ej9hO8px+5/e8PEKO1p3Hsp9D9jJMz33IzsGyKJ7gWLZXY1vyD09PZdoJeMwcpn6eos8OcCjDi6DT7BxJrmNbvO3iZrwYbRqKyaVOxd1FxOkjZ34xGO4jx1rsodbahS2KHJHiCY6ryw4wQV12AKBpfXaAJLMq3IZtVf/IznFk1xGx3qNYWNRWuy+GYnJpU+N3sX1sLPJr/kSOtdjfOpRPHIniCY7J1NO+Lkw7AY+ZyTlH+7odthnOSq31PCL+Fst48bhv6fSlgFnkzxDDY2MpxaTS6QmG76UuO8eU3DvEfwnPuSRTPMHxddkBJqTLDgBMwizOO9pDnx1gLMMVl9Yx74LlIvYsne45P3CWyVhI+fSU0mk9UpbJGQ5hv8jOMSXDY+0kTD4xMsUTHJupp11dxGpzkx0CmIQ+O8CRzXrKa3ghtIp5Foofaq3PObdn0duJ7pVPc7wPTDodxvtQouzl3kUelHaMRvEEObrsABPQZQcAJmPWRcwD+uwAY6u1fq61vouIf8U8SobbiPjbcKDvkw0vEJd23tEfDOXTOub1Jt51RJwonZ7vXomifNrD8Jx7GhF/j3l9b9EIxRNkMPX0PaadgJ0N5x0t5Tn1cklXuRq2zpzEtN+J/yUiVsM2wmcbipcp3x/PNrOpuA+11tWSvq/HNpQoq9h+77GH4dzEVUR8iHmU/jRC8QR5Fv2O5Xd02QGAyVnK1NNSPs/f3Hsn/i8xrcLlMrZTTu8PXSoM98dct5zt5N5U3N9jmvfDdUT89blTcHxbrfV9bC9YsJQ3Jg5i+N7qYlv6/yNMj3EAiifIstp8jO0PpfyRaSfgKfrsAEfSZwfIUmu9+aqAarVs+FI4rQ815fSQYfJpFdMq4w5umNA4ielMaNxFxL+GKSdb60ZWa+1rrSehQNnbUECdD9Njf43t95j7kCdRPEGuLjtAY+7CJBjwBMOLz7m79UL1DwXUSbTzYvIutgXQX8cunO67d1/8V2zvi08xjfLloL6a0Gi1gLqNbbaTYQspR3SvQPlLbM+O8+bvHmqtV7XWbrgP/yu2k2QfYvuc08JzMI0rtdbsDLBsV6/7iHibnKIVH2K16bJDANNUSjmN7QvPuboZplz4SinlJLYHCr8bfn1xhGXvYrv1sY+Ijy2d0VNKeRnbaagvv46hP1bBtq/h838X2zez3iTH+RTbx8f5GDdeSlnH9jGfodnHwK6G5477H1km//x+73knYtznnl1M/v6cG8UTZLt6vY6If2fHaMBdRJzEatPMD+4ATFMpZRXbFz0nsX1RfhIRr555s5cRcRMRV7F9wb346bMpGIqFL4Xkj0da9lP8XkjeHGlNgGYpnqAFpp4iTDsBMLJ70w1frB/4bZ9jWy5FxPaMmBEjcWTDhND9YnIVz5uQu19IXnm8APyZ4glaYOrJtBMAkGaYknt57z99/e/9/d+vYALYneIJWrHsqSfTTgAAADPkqnbQji47QJK7iHB1FwAAgBlSPEErVps+lnlp1/e22AEAAMyTrXbQkqvXJxHxn+wYR3Qbq81JdggAAADGYeIJWrLa3ETERXaMI+qyAwAAADAeE0/QmuVMPZl2AgAAmDkTT9Ca5Uw9ddkBAAAAGJeJJ2jR/KeeTDsBAAAsgIknaNH8p5667AAAAACMz8QTtGq+U0+Xsdqss0MAAAAwPhNP0Kr5Tj112QEAAAA4DsUTtK3LDnBgl7Ha9NkhAAAAOA7FE7RsO/X0ITvGAXXZAQAAADgexRO07ywi7rJDHIBpJwAAgIVRPEHrVpvPsS2fpq7LDgAAAMBxKZ5gGqY+9WTaCQAAYIEUTzAF0596ep8dAAAAgONTPMF0THXq6SJWm6vsEAAAAByf4gmmYrpTT112AAAAAHIonmBapjb1dBGrzU12CAAAAHIonmBKpjf11GUHAAAAIE+ptWZnAPZ19fomIl5lx/iOi1htTrNDAAAAkMfEE0xTlx1gB112AAAAAHIpnmCKVpvziLjNjvGIX5ztBAAAgOIJpqvLDvANd9FuNgAAAI5I8QRT1e7U09lwCDoAAAALp3iCaeuyA3zlLqZ11T0AAABGpHiCKWtv6sm0EwAAAL9RPMH0ddkBBqadAAAA+APFE0xdO1NPpp0AAAD4A8UTzMNp8vqmnQAAAPgTxRPMwWrTR8RlYoL3pp0AAAD4muIJ5qNLWvd22O4HAAAAf6B4grnIm3rqEtYEAABgAhRPMC/dkdcz7QQAAMA3KZ5gTo4/9dQdcS0AAAAmRvEE89MdaR3TTgAAADxK8QRzc7ypp/dHWAMAAIAJUzzBPHUj3/5lrDYfR14DAACAiVM8wRxtp54+jbhCN+JtAwAAMBOKJ5ivsbbCXQ7FFgAAADxK8QRztdrcRMTFCLfcjXCbAAAAzJDiCeatO/DtmXYCAABgZ4onmLPDTz11B7wtAAAAZk7xBPPXHeh2TDsBAACwF8UTzN3hpp5OD3AbAAAALIjiCZahe+afvxgKLAAAANiZ4gmW4PlTT91hggAAALAkiidYjvcRcfeEP2faCQAAgCdRPMFSrDafI+LsCX+yO3ASAAAAFkLxBMtyFvtNPZl2AgAA4MkUT7Ak+089dSMlAQAAYAEUT7A8u049fTDtBAAAwHMonmBpdpt6utvh9wAAAMCjFE+wTN+bejobCioAAAB4MsUTLNHjU0+mnQAAADgIxRMs17emnkw7AQAAcBCKJ1iqbbnUffVfTTsBAABwMIonWLLV5iwibu/9F9NOAAAAHIziCeiGX2/DtBMAAAAHVGqt2RmAbFevbyKii9XmPDkJAAAAM/JDdgCgCaex2vTZIQAAAJgXE08AAAAAjMIZTwAAAACMQvEEAAAAwCgUTwAAAACMQvEEAAAAwCgUTwAAAACMQvEEAAAAwCgUTwAAAACMQvEEAAAAwCgUTwAAAACMQvEEAAAAwCgUTwAAAACMQvEEAAAAwCgUTwAAAACMQvEEAAAAwCgUTwAAAACMQvEEAAAAwCgUTwAAAACMQvEEAAAAwCgUTwAAAACMQvEEAAAAwCgUTwAAAACMQvEEAAAAwCgUTwAAAACMQvEEAAAAwCgUTwAAAACMQvEEAAAAwCgUTwAAAACMQvEEAAAAwCgUTwAAAACMQvEEAAAAwCgUTwAAAACMQvEEAAAAwCgUTwAAAACMQvEEAAAAwCgUTwAAAACMQvEEAAAAwCgUTwAAAACMQvEEAAAAwCgUTwAAAACMQvEEAAAAwCgUTwAAAACMQvEEAAAAwCgUTwAAAACMQvEEAAAAwCgUTwAAAACMQvEEAAAAwCgUTwAAAACMQvEEAAAAwCgUTwAAAACMQvEEAAAAwCgUTwAAAACMQvEEAAAAwCgUTwAAAACMQvEEAAAAwCgUTwAAAACMQvEEAAAAwCgUTwAAAACMQvEEAAAAwCgUTwAAAACMQvEEAAAAwCj+Px0haSRoFQsiAAAAAElFTkSuQmCC;" vertex="1" parent="1">
          <mxGeometry x="142.06" y="110" width="109.19" height="40" as="geometry" />
        </mxCell>
        <mxCell id="uzLd8xs1DvLDweWQHwrh-7" value="" style="image;sketch=0;aspect=fixed;html=1;points=[];align=center;fontSize=12;image=img/lib/mscae/Docker.svg;" vertex="1" parent="1">
          <mxGeometry x="261.25" y="120" width="24.39" height="20" as="geometry" />
        </mxCell>
        <mxCell id="uzLd8xs1DvLDweWQHwrh-11" value="" style="shape=image;aspect=fixed;image=data:image/png,iVBORw0KGgoAAAANSUhEUgAAAcAAAAB0CAYAAAASCeKkAAAAAXNSR0IArs4c6QAAAARjSUNQAQ0AAZxpOzIAACAASURBVHic7Z15mGNVmf+/701Sey80dFeTpCtpVEBkQMVBQByru1IFyKKOO9sooCgiwyaMC/x6QEVQsW0UhJ+Djs6MIIKAsnRXCppdWYelWXtJqpPUXl2Vyn7vPe/8UVVNdVXuzb3ZKtWcz/PwPPQ957znza3kvvec8y7AXkD855cc++IJJ//g4cPavfOti0QikUgWBjTfCpTC2M8uOgDkvE4bS3oHn+59f99ALsqC/3Op0vCTDz33l9R86yeRSCSS2mVBGkC+eV3TRCZ5BYMvAqD2PbKtjlW9LpnUXhsf094LRoSBbwVe2HTbfOsqkUgkktpkQRlAZlB8w6WfZ9CPCfACQCI0uiO+dWj1dJ/+vmxYCPZNDXiESVwQeL7npXlSWSKRSCQ1yoIxgOMbLjsSQmwA0Yenr+mq1jfw6Pb9wby7XzYnUiNDuabpfzNDgPDrpix9+5gtG0errLZEIpFIapSaN4ATN126QmTxUxBOA2gPfUdeiKSzI8nG2WOGh3PRXFZ4Zl5jxiiIr3Q8r968Bpu1SustkUgkktqmZg0gb/hm/QQ3fFOAryDQ4tntubHU4PCzO1fkG6tpjMGBTBqgOcYRwOsEceHa54Mby660RCKRSBYMNWkAx9dfchxDuZEIB+TvwfrgUyGHlswZypiIq+MTE/oSo3ZmPOjScd7HXtq0o2SFJRKJRLLgqCkDGF9/2UFMvB7A8Wb90tGx5K7XBprN+jAzBvqyCcFoMe6DLAE/q08lf3jsG09MFKm2RCKRSBYgNWEAx6+/aBkczivB+AYITrO+rInMwBPbG4SqF5SbTunYtUstrADzAIG+s+aFTb8hgAsPkEgkEslCZ14NIK9bp8T3SX4dzFeBaJmVMWOv9SMVHbc8x/BQNpnLselqcYZGf4euXNDx4sanLU8gkUgkkgXJvBnAifWX/JNOtIFAh1sdo6dy2YEnd9TbmUdVBYYGcgIExdIAZgbhvxVN/faalzZH7MwlkUgkkoVD1Q1gasNl3pzg9UT4tN2xIy9EkB1J2p5zbDTHqbSw9VkZSIH52tyE89qPb30ga3tSiUQikdQ0VTOAfPO6png6eSkTLiegqfCIPckMTvDoS7Gi9NV1xuBAVmeGo4jh20iIS9b+b/CeYuaWSCQSSW1ScQOYL32ZbQSLgSe2K3q2+Pj1REJFfLyw44whzI+Qrp279qWH3yheiEQikUhqhYoawMT6Sw/TgVtmpi8rhonQCCa2DpekCzNjaCAnNJ2tnQXml6IB+GVjVrlKplWTSCSShU1FDODETZeu0HN0NTHOsex8YoBQNR54fDuxXnp0QiajY3TEQlhEAabTqnU8330TAaJkgRKJRCKpOmU1gLxunXNin+SFRunLimFsSx9SffFyiAIAjAxnkc2WKdSP8SKACzpe2PRoeQRKJBKJpFqUzQCOr7/kOBCtB+jgcsnMjacx/ExvucQBmAyLGB7MMZfxszPjTmjissDLwe3lkimRSCSSylKyEUjfcOnqnKAbUSB9WTEMPR2GGs+UWyzi4yoSiRIcYvIwnVZtiVJ/taxGL5FIJLVP0QaQr71s0UQDf2eyKjvZCk63Qro/jl2v9JVbLABACMbgQBaiEqd3U9XoO17YdLtMqyaRSCS1i20DyOvWKRPLkl9igR+C0FoJpYQmMPTUDpQS9lCIZELD+HglywLy3xniq7IavUQikdQmtgzg+IbLjmQWt9hJX1YM8beGkAhXNsqAmTE0mIOmVW6RNl2NXtdwxXEvbRqs2EQSiUQisY0lA5jacJlXFeKafFXZy42WUTH4xA6AK797WK6wiEIwECchrs4mXDfItGoSiURSG5gaM97wzfq4aLi82PRlxbDr5RjSA9UrzTc6mkMmXZ1QPgZvV8DnyWr0EolEMv8YGsD4zy/9BIN+CuBd1VImM5LE6AvVLcCgaZMOMdWEGQ8qunqhTKsmkUgk88ccA5hYf+lhGtEGAj5WTUWYGUN/C0FL5qo5LYDKhEUUZjKtWn0ydYWsRi+RSCTVZ7cBHL/+omXscF5TjvRlxZCK7MLY6/PjJyIEY2gwC73aNhCYWY3+tzKtmkQikVQP4nXrnPF9kufaqcpeboQmMPjEdgh1PizQJOmUjl27Ku8QYwjjRQj6qqxGL5FIJNVBGWsZ/wmAX8yX8QOAxPaReTV+ANDY5IDLVfX6wG9DOBwO/vv9h3Z2zZ8SEolE8s5ByY6l9wdzZVKuWEBNZJHYuWu+pt+DJUtd8zp/VkMoJVxL51UJiUQieYegQAC5eGbezp7ibw1VJebPCnV1ChobiykaXzrMyKZ0h39eJpdIJJJ3IAoA6BnNI3QRrfbk2eEEsiPJak9ryuIlzgqH+ucnrSn1XNn6xBKJRCKZwW5vT3U8U5G8nkYwM8bfGqrmlJZwOAiLWpxVnVMTJDJCGj+JRCKpJrsNoFB1p5ZRx6s1cWrn2LzE/FmheZEDjiruhKY0Uspcm1gikUgkBdhjqaPGs0uc9c4sqPzljWai5zTEt9Xe6m8aIsLixa6qhEWoAtC46mGXNYO3reMCKPk9kDWh39Hf+/CWauskkVjF7e/4gmJQBJyZH4mGex6utk6St3Gv6uxSHHxMvjbBeHPPvT5mqMlsnauloaJKTWwbBuu14fhiRGOTA6mUjmy2cv5BzEBSmx+nm5qB6AKA8qbbUxTlNQDSAEpqFgX0BYA+YdD8fQDSAM4jpOA4gC7O2wbcP2fpoSVVYl1UbOmjJrJIRau201oSi5dU9iwwqxMEy61PiUQimQ/y7r2p8WzFAuLiby6csngul4KmpspsTwoGUvo7d+tTIpFI5pu8T2A9p0HPln8RmO6PIzuaKrvcSrJosasiYRFpjSAdXyQSiWT+MFyCqBM5lDVCnQXHazDsoRAOB2HR4vKe02kCyAq5+pNIJJL5xPApzLqAllLLtkSZCO8iPauVS1xVaW52wuks32pt0vFFrv4kEolkPjFdhqiJLMCi5FWgnlE5sWOkVDHzBhGVzSEmqxN0E8cXRun3WyKRSCSFUcAm25wM5CayJS9V4m8NUa2HPRSiocGB+vrSbgUzkNbMtz4JilwaSiQSSRVQQOYuHnpag9CKL1WUi6c5PbB3FDxfvMSFUs5FM7oCIbc+JRKJpCaw5ImhTmSLnmD89cG95onvciloaSnuMFBnIK3vNbdCIpFIFjyWDKDI6dDT9sMiUrExVuMZ2+NqmZZFTpAC20viya1PaQAlEomkVrDs2aEmsnA0uATImtFkIdT4W8PzW2G2AigKYfEip2N83LpHqyoIub0g7MHrW3sCoJzGRIcS83IQuZk5AcIoGCMEeh3gP0VIux+hzSW/+ZCw/6Ixk/1Xr/Upgs4EqIuA/ZmwgkCLmBEBeBDAFia+X9GcmyKRjaOl6lsruP1dB5PgM0HcDqL9wVhOxA4GBgHEAHpRMDaqyVRwePiJip9PeNoCZ0Kh0wE+kEC+yav8mGC6XWQzf+zvf6wq8VHutsCxpOA0YvpHJl5OjOUgEBgjTBgBo5cJdyVF5u7x3sdLrtJNVNr3FwA8bR0nESmnMuEQYqwAYX8AcTAGQdzHTA+ySr+PxTbtLHWuWsfrDfyDcNI5CuMjDLQSwQvwOAP9BOxg0D1amu4aGNg0M9uKyZEVs2UDyIKhprKKq9lanuyJ7SMOoZb8969JmpodSKX0jKpywaSpk/k+F67x2+eAwJImHd8i0Hkg7ANMrWOnjo6JqAVACwhtAD4A0Be97EzDF/gDdO2aSGTz1uJnL84hyN0WOJYI/4+YAjMX3dP/O/nDIS+ADxLoDDgFvL7AT9SMsm5gYJNpgUqPv/M1AvImPwaABNR9xkKbx+zq7PF1Pk6Ej+RrY+abouHgeYVkuP2BTxDjcgIfPfmaOvWJJ/9gIKANk/8d5SCc62hpgqe548pouOdqu/q6/YEfKaDL8+oL/mM0FPy8x9/5fmLcBcLqGYpMQR9VCB9V6uu/DcBrd35buvoC5yugi3frQVN3Y/cXAh4CPCAcRsBJi5TGWxf5A/foOn2/b2f3s8XPXFwKjaX+9qXN7LyEQN/Y8ze3u8tiEBYD9G4ifJTq+AceX+dDzHxNrDcYtDuft63zdCj4fd5G5lcj4eD7rMpa6W/3O+HaYdQ+IdLL7L5ceH1rT2BSrgToqOmv9du3gpYQsATAQQQc72rkmzz+wO9I06628uyx9WTWkjmwzgVrGImclkqEdy3cp34BiAhLlrosZQxfyPk+Pb7Ad5t0RIjou9M/REsQNYLoLDhdb3l9gf9a0nas9bElsN+qTrfXH3hQUegxIgrYGkx0qbNRvLr/qo6PmncUvzNrbYbrk7bmBeDxtHuNjN8knP/hNIXb33Ww1x94WgHdTURH25mbSLnK4+98zbN6zeF2xhXC7Vt7DAEvvG388sNET5Zz3j108Hd83uvrjClENxTSYy70CYcDz3h8gW6vt/3dldFwLl5/4N+a4ewlou/Z+c0RYa2iULfXH3h0xaq1eZPLLzS83rUejy/QDXLcT6CjrI4j0JlwOl/2tHV2FOprz0gxoCYydYW6jb8x2FTOJDK1SF2dgvoGJWHWhxlIL9B8n15f56+J6PtTK7ziITptETU+5/Z3Ga6aysFKf7u/3oEnADquWBkEanM4lEfd/sCXjfpwjv7bVAjzZ2xP7HIaj2HeHg33PGXU7PV2HEYsHgPoH23POwUBB0M4n/D6Oj9erIxZEvchOG631FPTf1KeOffE4+u4WIFy29SWYdEQUQBO5zPutoC9F6oicPsCtwB0DYEWFS+FPupyOJ5sXdV1aPk0qz6tq7oOhcPxjO0X2d1QAwj3EvGRZr1sP531jAbWhOG5QS6eHtxbwh4KsWSJq4XAht5BaZ3AC9DxxesP3A3C2WUTSFitQFxTNnmzaG0LHOBk15ME+MshTwHd6vYFLs3XFosFewHebDSWiE7c54DAElsTMj5n2Eb0X0ZNbt/aD8JJjxDRfrbmyzsNmkG4z+0LnFqyLKBzcpvZHGY8GYk89HSp883G4wtcTaT8tHwSaSkpdGP55M3F4+u8QyH6SjlkEbDC5RCPr1zVUfRL0Xzi8XQc6HSIJ0t/eUETQKY7OkUtT7Lj6UUA5zngY31sS/+KYmQuRJxOQlOzI++WsC4m4/4WGh5f5+9N6psVB3NsQmTOsj1MKew5tNTfvtSp0IOl/lhmQ8B1Hl/gxHxtgtnQKAFAkwbL929y+9N421Jl+m2+617vWo9Cyn0ALbU6lxUUwm89/oDl7aZSIPD15Zbp9nWcR0TfK6dMZqQ0nf7Z/jhrla4nd1tgf+fAFFriUOiB1rbAAYV6sol7ullb3v5cZ9p/kWguIO8IFzmVu0pbBVuFqKgnNGsCIq0Oz76eGZjYqSULHhHuVSxa7GomwpxD3eQCDHtw+wKXEuF0q/0Z/CaYnwXD1INSQJxcjFedFS/QFrhuJ+A9BfQMM+NSgNcAvIaFOJmZ72SGocMLEREBd3i9az2z2zITdXcAbOzlquDThfTejdP1eRO9/zYQ3pTXoYCdjvsAWmkmmoHXGXzejM/9WYA3mitELoDu2W+/j1T2AcS8LRIO3llOkV7f2hMUUn5pWQUgxOC/Adxv2o/EWQM7N71iVx8rXqAef+BCq7stzEgy8/Ng3m5tftrXRej2eo9uNO1n4ilJIFsVwYlypmdfCad5hXGPb9k6ECw73YD5VYBfttx/1uCiE1xmJ3KtDY11KQKaJkVxcuz1QX+x8hYqikJYssRJY2Nvh0XkdLDGCyul2VJ/+1ICrizckzcKnW6M7ey+d+ZVt7trFVz6yUR0LoEOm74uwGfFwg89X36NgSmHla4C3S6MhoI/z3P9r62tXc3ORv4DASfnHUnUyE7HFQC+NvPy6OgD8cbFgXsIyGu8CHTKfvt9ZJGlEAPCZ42amPM7v7j9HV8gwNBphRlJML4e7e3ON/5PHk/HvnAq9xg53hCwor654UIMw7Z36CxF0mBaF1HUDQhtzrjdRzSRc9mJRPghGBtKkp0Xx3UFVQJehMBP0wnnPaOjD8Snr3u9xy0TTnEcMZ8189yJmX8WC/dYOs+0y377fWQRMV1Z6D2ZwbcLXdzYt/OhR6evLWk7dp8WpfFzYHzPdLuZ6AB2Np8LYH259K4Ubnf7fgS+qNDCgZkfF6Dr+8Ldf9590d/e4BHOU0D4NyL6gNU5i9+jY4aezO1eBSZ3jOzcW8MeCtHU7FyqKBSe/BerKc2xoIwfALTAeaHZtgMDO3Xw8ZFQ8PjZxg8AYrFNO2PhnhujoeDhgvnsqTE3x0LB3xSvlflLhENRvm3YyJwGeE0k1J3P+AEABgY2JaOh7lPAeM6oDwHnut1dq+bKN3Abn6KhqangNuhKf7ufgA8btSc5+4d81xXQdwyFMkZBONbA+AEAotGekSSpJzEQMpRD9C3bZ5kz1WAkBcSxkd7u66ZjQmOx51LR3u47IuHu9wht138UKzsfXl/g0yCYOH7wOANfjoa63x/t7f79TOMHAJHIxtFYqPsP0XCwk1msndrVeCQaDl5cvFbmYRD1zY0XmHp6Mm8XAsdGQ8EvzDR+ADDe+/iuaKj7ZlZHD2LA8DsOAATkDVexRnld2FloxvLqnJeAyGS1ymMscGY0HPzoHsYPAEKbM9He4B+j4eAHAVxoVZ+SDqnURLaNGSHW9VB8+0hFvfxqnaX7uFoAIKMqwwsy3yfTBYZNwFAO6pF9oWCB7bNJYuHgrQw+Ohrq/lrh3mYYV8ZobQscAMIJhiOByyKh4GZL0+jqF0zbXWLOSi8aDt7HgHEAt8IFt0EVdhqv/sD35ts2nlz10j8YjRMkzo6Guv+30Nxjoc1jzPppRu0EWtQo2PD+FoKBy81W/rHYc2WtjM2gi8zaBYu10VD3b63IioZ7HhaKdozIqSWeyxVwhSf6V5Ox/Vo2e1Sst/sJMxGx2HOpaKj7Qmb80GSilZ62zjNMdTEeW1Z3flKchvIUxplmYzWdu8xe7KaJhLp/LiA+ZUWfkr001PFMfNer/e8Mt08TGhqUfV0u5am0UMrqjFENPG2dHaZvooLPHwptNj0nmU00FPxbyYqZrACdCk4xamNgMBYO/sLqLJHI5q0M/KdRO4HyGgIG8q7QpkZ9cvnydtMQEgVkeP4Hkd/70+FQTjIawsCLsVDP3WZzziQWfuhJZu4x1I/JcK5CpEg1DxcpI8v97SvN4iiZcbXdbfjYjoffiMU2z/FzsIfxCnD/VWv/iYDlRu0CfKGdDDnRcPd3wRw10cSSQZhLdVaAbn/XwSByGw/kH/fv7HnG6jyxUM/dDJ6zUzWbkovc5caSDcnwqFAT7yznl3z0xRtBEEzKwloCEvEnjfbdGRyO9gb/WGWVCsM40eguM3CbXXFC1291OBz/kq+NCGvhb2+Ynd6NdfweDhiunF3NrpMxlN9IrvS3+wEckX8kj0d7g3fkbWE+2aiACxfwTs07BriVgLwBw0woKgaLgf8tJhtOsdQL5ylmr/KsqhU4bywNRVEMEyYwOBwL2T93FMB6BfhxfpkoOj62GhDEGrOzvwwcP7MtlHk9iAxflIESDSAzQ43nGprc+9D4WwOmWdf2dhKqEh9XnUfXKSLUrOj++dbHDgz6gNFXjxi1Z/wmeb9RAwEneP2ddjObmL60eFRHWxR4c+a1vp3dz3r8na8bpUZTJoPi8xpAJ5zG265MeY0fABDRe43aFMKZXn+n3VWb4ZkLgVpbW7uaC6WHmzuOQzZ1KAlWYPj9BeOB0ldy5YeIPmjYyPSnYmRqQvy5zuHIawCJ0LR/W9cRfb2bDM+75xNiHGISjLF5OLyxz67MaLjnYa8/MGYWKlSSAdQSuSEwtykOBQ37tgxlhhOGS/q9nW3xxgSAxTmheBpZX1hlbQn7GjXpIMMsJPOJWfD3VFiEaWiEbRzKKswygAAmnWEIPzBQ5OPLl7e3DA1tnpMxiBmfM9og04We95xjv1WdxltEkxMang0Wi6MRqwC8bmcMA1XeDiLD7y9D1OT3F4z9DB/4jL8XI3Jw50PbPL7ACJHB/SBuA4wdvuYTBi01uh0Cxd2PScH0lJmvQNFngCwERDK3+4yjYb+WReRYeIHf5WAk49RzQpl+OLlSav7g+BrG8AGiMOJGbZUn//mDx9NhqG8FyWt8WCWTQ3lqcDU75gTTt7YFDjBy1WZGZLbH3zT1Tq3qL5jEehFn2sUlgS4aNv7+Einz9v1lkzRQTMbnf8wYL3pSoohRk0LssyvObiB8IYwC4cnkGUTgou8HE5tWySjaYqnxbIpnbJ8QUUPj8pbiK+cuUHQB9CYa0jOvqazU5RZQ8VvKm9VnEqGIeSxpld8DLenSqx5vw4rI+1IzVYbmEaNxxDTH09NJME43ZhJeoWmu6n9uVop4matyImCTgHPBPG/fXyKTAHM2TqFISvE6m8mFxcw0e8gr88HWhJLMK4/J5H6ACuafNsE08L6oLVCR0yEy2pxqCPX7NLsyoymInPVaeQudWKoOGs9NGJ3WHXApWrXfhYuCQf0E5M0qogil5ra1x0Kbx1r8nSY9+GWAylrfj0gYbgMKFr9XSPlY/nE40es9ujESeertlyST4HdBxpUfHHquHw6TZyPzsyCydV5XiBzDsLRNzcDcb/RDU4hq7vs7CfUDmJNlCACYUHQ6SQatNNxZJeT3EiXBRmshJrJljB2qow4mI4zCIIhpyNCpjYu/H0bPtWmKMoBaPKMDcORpUppXLtYnekfzte11ZHVCf7peIM+3RzAhqxMajMNeagYC9xvudCh8DGAe9D0fMDj8dnHV2dB/mAXAl5tcMvPHhpamXxvo0sBK04kA/gQA7tVrDiJ+O1POTJj5+b5w8DWjeWKxzcNeU8OPH0VC3WVNL7YQIMAwRIeZj6mmLlZhcD8Z/OYIOBKA7QQSbnfXKiI2zArDOud1JGHGuNGLOoFtvUCwQ1lu9s5v5B0siIeNnOen7kdRMOgYM32KqAahQmjC0MA5m+sdrsWWSuUteCKJesDkHqZ1h0kod+3ADJOin/TPra1dzdXTxhpkkr2FmfOnNqsQw8NPTDDY2FtWobcDqnWncewfwUoYg2H1BCaq6ueuFQSxcSYfomOtJISuNkRmvzl8Cv522w9RpU4YJjYAADWdfSHfdZ0xYDyKlk6F7FiCSBhmNmKw8TzMb5kI/ZB79ZqDrOowjbstECCYrx5tGUBmhhbPFnykN61YtBCrANkioSoYzRXaHSBktNpfDOvCOGCUgBXOBmGccqyiGAfhCsJfjdqIqMPtW2vsZl4JhEnRWqaTphMSk4IvGnXT0krB4HFmYfy5gX9xuwNthWRUnupu/GfidQ+YtTvJPFVYpTBzghEsTH5z1OoWrsvszLVidUcrA8Yp8sAbjXLTOpljZrKdwmVcrmsOZJhMnxiGDimKzg+aShUO2+WtSKG8ISF7zGtHoJ7MgS2UN1dcTqpfVlod1VqGGehNWHtBywqCbiufevXp39nzDDMMvceI6Ltef6Ddjky3u2tV6Q9jNrxzIpM1NAQAoJDjpmJmXOpvL6q8ULS356/MPJKvjQjNuqPl+JVtHYcYxQyC8cDAwKbBQvNowvFns3aqww2WFJ5FKXk/52L8d6sEk3k9jatcENFJHn/g63ZkLl/e3uJZvcZuLOmseY3vQyz80PMMDhu1Kwr+3evvMlxNzaZOKL8xLSFkElsYiTwUNa0wQfyvy5adsLiQDp62jpPMElEzKK9389s6YIuhCkQnetsCluslenydPyCTWOFpLBtA1gX0hHmpi5k07tsMcu6dYRFDaReSlld2hNQCWAUy+NoCHe73+gKWaqJ5fB1HK3XiaaXOOL2YNYyjKfv7Hxti4GaTwUd6fZ3/Y2c2ry9wQzNcDxez/QQABBjOpxA+51QUw+1PAWtZXAZ2bnqFme8z1oFO8fg6bb0te/yB25sFylnxoOr7P7rO+WMxpyDQjd62TkurqlZf1+r6JtdTYOdfSisLVWglTD8yb+dNHl/HGrMera1dzV5f511msW5g9EVILfT92mzYQuRuXKTeZZbab/9VnR8iUgr83vkh01Zig3P0KRS6xe3r/Ib5HIDHF/g+kdlqeIZIK50AQI1nbcWEkENB04qCLw0LDl0A0ZQ9r1yNFdR6WEQsHPyF+VsgNYLoTq8/8GC+QrGtrV0rPP6Of/H4Ag8RKU9O1qqjdo8/YJqk2BzzE9Qc1HUwq8tH+KLH3/mCu63L9GzM4+/8ktcX2AKi8wl4v5edlmvKzUQX9DvDRuaTGPm3P5k5oehJ05XdTDSh/JtZOxEu9vo7H/H4utYa9Vm+vL3F7Quc7/EHQgT6HEDHef2BdVZ1KEDVT777dvY8ZvZiAABQcK3H3/mC2xc4dfa59j4HBJbs7+v8lMcfuM1FvB2EQwlYVd/cWML2qXk4SDTU/SswbzPpsphIecjr6/wfd1vg2JkNbnf7fm5f4HxXo9iKAnk+mcS3Z6fxmwuZOk8RUUdds/PZ2d8pj6djX48/cJHDgWdAWGaoA/MIq7seNp1DS95sek4IQCH8wuvvfMS9qnOPFGetrV3Nbl/gVK+v82Ui+q6ZjD3m7P/O124HYLrHq2c1qLvSZl0Mie8Yhp4xDk1ZaEQSdehL19seR2AsqSscFkGMz3/m1fvnJf2Ye1Vnl+KApYoPAMDA6wTEwXi32ZdfZz7EyLvR6wtsBdG78soX4rPR3h7TtFAeX8fFRErBFQ+DB4hxhyA8D52iCrEPhMNAOAOgOdt/gvnsWDh4ayG5c/TxB94g0IF2xjDwn9FQ95dszeMLXE9kXgFhUjb3EuN2ZnqZGQPk4HcR0xEAn5qv9AwznxQNB80NCQC3P/AjBZS3zA6Db4+GguYVNiqAx9NxIJzK80Sw5rTFvJ0JgwBWE6jVqJsAfzIWCt6Tr83rD9wNkEHpK/73SCi4zkwFd1sgoCjUbVHfNIheBmM5CKst/MZ87wAADOtJREFUjQEeiYS626109Po6nwUZ5actDcF8WSwcLHgm5/F3fo0A68cXjC0gFsVkQWLm+wquAKccX+zK3k3Tyr1nFZjWFPSni4vJZBAyem1vCcd2dm9i5u9Z7T91nnWkmfEDAIXsJ6eemqHgDYuGe65n5oKu/wRqBdH5CuhWxYGNUOgWEJ2fz/gBgEL0H/u3ddl/GDCMV4FGQ4SwXTlhsk4dP1aoH4HaQPQtUvA7xYGNBLoRhLON6q4R0f+U7jVZ+O9WCaLRnjcFYL3sD9EBBDrKzPgBgAL8drm/3TSeLB/Mhe9DrDcYtPybm/ybHWnV+DEjAk2xdGwBAAzxLat9bcHYESPN0tl0NNT9K2bcb1k24X2lpAAs+AfS0yq4BC8OZ2Md6paY1DhcQOxM1qMU99aMrtR8WEQ0HPwBmMtayoZAh3n8HUV4klqrRcbqrjOZYVo3rRgcijA9V8qHUITNigzcH+vtsbYCmI3m+KSZ40CRLHYSLL8E5afKmWBm0Bfu/jNEKQVg80FL69l1ve1RJplgZlKJ3xwzjzD0T0QiGy0nhIiGex4WjPPLqQcYo6yJ4wtvwb5NktTTGNxbVj0MUMDGX1YWDG2i9LSWjSsWFSruXfOMZR0Yz5VaPYqQUmvfISYSDp4umG25YZvB4L9BxS3lkjebWOy5VDTcfSyYLdcAtMDT0BzGKcsM6NvxUBiAobfbHNhS7F9eIpGNo2qGPmxlBWwdfpDVXeV9CFaZSG/3dQLiU8woS9FdBnYKRfv3csgyIhIOnl4uw83ML7CqfMBuDUQAiIW7f8ksLimHHmCOCXAgGu2Zm0TehLHQ5rEsO46azOhUyvzYWujFQoFRcTEAWiJblpc5xelA4741F0ttGebJ1V85UFmBJmr/ZSAWDv5YCP4omF8tSRDzDdFQ8OhotCdviIA59tbLkXDwm2D+jFlIhxUYvF7kRtfYeXueiWBhfRtUN4kftMDAwKZkNBz8DASfaxSGYR1eFwkFTyhDtfZ53+eIhXruhiY+APDmkgQx36VnMkfEdjz8RjGD7fSO9HZfxyzWMmAcFF4AAb42Gg5+cCpHbVFMHiuItQDbKoK9B4wHWOPDYuFg3uD7QgyHN/ZlEumPgM2KTpvOv4U1dQ1PppwzxHALVGg69FT5nFfql7Us2LCIgbQLGb18K7eUpszjJpF1Yr3BxyPh4PsYfLGdLQkGTzDzTdB0byQcNCwYWxj72waRcPDOKKnvAXBVIY+y2TDzfTrzIdFQ8KJSjEAumbHmxMTYEon0vFTsPDOJ9AZvSXDmPcx8Exi7LA9kTjNwm8ixLxIKlmuVUxNveNFoz5uRUHCNAE61u1XMwG2aEO+LhIOftlOZfU/sJwSIhnsejoa6D2Tm7zFgeV5m3M+qOCgWCpp6CNvRQ00r7wZwlamn9Rw9+DUwToyEuz9e3Evv2wwPPzERCXefqgv6EIBNluYHXgeL0yPh7kOj0c0FX4QNvUBzoymIXHmTz+fiaSSjVSsUXRZUQXhptBkW4v9t0eTQUJ8nT+h8eoEWwu3vOhjMHQrwAQbeS4RDmeEE8TAYwyC8AsYfrXgRTjMZ7CvyHhJrmeyW4h8+k6xs6zjECeoA0eEgPpAZ7wWhHsAWYmxj4HUhxKNGJYiKZf+2riMcijCNIWOVY3a3h6zi9q39IIHaQcphYLwH4MMAZAB6A4StzLyFwI9Hwz1F1ctrbQsc4FKQN9GBJniwv7entJ2DCrDc376yTji7QDgKwMEgHEKgVjDHmDBMwHYIujObVu/OV8MxH62rug51OUTe2pQatFB/aHOoFJ293o7D2IEAQO8nwsHM9D4QD4FpCxO/xMBmh5Z8dI9k62Vm+fL2lvom53EMnAjgcIBWEMHL4AliGgBxhJkeI13/ayTykGGqvlJZsWrtu5wO5SsEfAwgDwGrAB5nUB8xvyqYfzX7PH3FqrXvqpus5TkXDSN5DaCeUaGOWTb6tpgIj0BLLZxyeeGJegxmSqnGkR+jsIhaNoASiUSyNzFnT5KZoU0UzvdZLAspLCKtKRjMVKac2EIIi5BIJJK9mTlPYD2pgvUy7/fNwFHvQt3SpkqJLyu9iXpU8jgjoys1nydUIpFI9lb2MIAsBPRktuJVpxuXt9R8WMRIxom4WmrYQyEI6TI610gkEonEOnsYQC2e1ZjzFrot76ROBxr3q91qEYKBSJnCHgqhitrPEyqRSCR7I7sNoMjp0DNapZc8u6lf1gylrmrT2aI/XYecqN75XFp3qAshLEIikUj2JnY/5dXxTFFBv8VCRGhqLaHSSIXI6oQ+m9UeSkUwuTIaVXzrWSKRSCRvowCAlsqNsC5MExpXAldLA5xN1TU2hYgk6sse82eFjHCotZ4nVCKRSPYmFNZZ0eLZeatX1LRycY3kjQASqoLRXGXCHgpDDamco+gUSBKJRCKxh6KNpGIAbJf6KBeOehcaltWGQ0xvoqhC4GVDhfIeTfDCSpUjkUgkCxTFu3XnJQDOB7iqZ4Azadi3GeSY36DwkYwTSW3+QhIY/KKi6x/+wusPWMp5J5FIJJLS2L35uPPszy7ThOsaIjoHFuoElpvsriRS/fFqTwsA0AXwyq7mqnp+7oZ5AIzvxLbf+9t1gAyLl0gkkiox5/Rt55lfPExz0AYi+lg1FWFmTIRGoGeqfxwZSdShL12duL9pGKwR45eOcVxx9vC9E1WdXCKRSCTG7ie9Xz71EwL4KYjeVS1ltHQOE6ESS5rZJKsTXh5tLqnSu12Y+UGnwIVn77i3iBpjEolEIikHpk99/uYJ9b2JZZcz4XIAVUngmYjughqvTCWKfGwbb6ia5yeDtxPovK9uvWdjVSaUSCQSiSGWlj2Rc07zajquAfg0swry5UCoOsa3DValpvR4zoE3xytv1xkcJ6arM5S74YKtD2QrPqFEIpFICmLLmO08+9QjNaZbCDi8UgoBQGpwAtkRS/Uoi4YZeGVXU1krveeZQwD8awHHFV/f9ufBik0kkUgkEtvYXs3xunVKOPTWl1jhHxKotRJKsS4wvn0IrFXOKXIw5UI4Wbm4Pwb+ruj81a/suPelik0ikUgkkqIpejtz6KxTFqWw6DsCfBGByu5CmRtPIxmrTEy4LoCXRpuhcUXCHiIkxGXnbP/LbVSVjVyJRCKRFEPJ53mhc85YDSFuBHB8GfTZg/iO4YqERfRO1GEgU16bzeAswD9DClefG/tLqqzCJRKJRFJ2yubQ0vvlU48TwHoQHVwumZUIi0hrCl7Z1YQyJyC905nTLjur977t5RQqkUgkkspRVivA7e3O8Gr3hQy6ggiLyyEzGRtDbjxdDlEAgDfHGzGeK08dQga/yDou+NqOex8ti0CJRCKRVI2KhDT0n3HGirRTv7ocadWEpmN829BkmfYSGcs68Fa8LGEPowxc2bf1npvWyfRlEolEsiCpaEzfZFo15RYifLgUOZnhCaSHSguLEAxsKTHsYTp9mZLNXnVOZOO8JQ+XSCQSSelUPP8XAxQ6+9TPE9OPAXiLEiKYx7YNUilhEbFUHaLJUhxf+BGHjnNl+jKJRCLZO6haAszYV09uUtXFlxabVi0XTyMZLS4sQhWEl0ebWWf7WWwY2KZAXPKVrX+5p6jJJRKJRFKTVL0We+Sc07ya4PUAfdru2InwCLRUzvac4Yl6DGbqbI2R6cskEolk76bqBnCa3rNP/SedaYOdtGp6RuX4jmFbOidUBa+PNTHD4uqPmZnw34Idl8j0ZRKJRLL3Mm8GEJhKq9b71tcBvgqgZVbGJPvGkRuzHmf+6q5GTmpOS5+Tgb87dP2Cc3b89WnLE0gkEolkQTKvBnCaqWr0VxLhGwCZBukJTdfi24edrBd2iBnJOLF9orGwAlNV2b+y/d7fyPRlEolE8s6gJgzgNNGzTj9IBa9HgbRq2V0pkeofN40vFAy8NNqcU4ViePg3nb7MOUY/lFXZJRKJ5J1FTRnAaabSqt0IogMMuojxbUOKyGmGMmJJF0dTDWafT6Yvk0gkkncwNWkAgclq9OHEPt80SqumJjITiZ27FuUbm9UJL482ZzlPlQoGv846zpXpyyQSieSdTc0awGn6zzhjRcYpfpqvGn0iPKKqqZxr9pg3xxrHxlXn0lmXRxm48sCt4zevwWbjpaNEIpFI3hHUvAGcZufZpx6pCdowM62a0PSh8a2Dy2e6rSRyivraePNuozhdld2RzX5bpi+TSCQSyTQLxgAC+dOqZYYTsfTQhHu6z0sjLZGsoKmUa/wI6bhAVmWXSCQSyWwWlAGcJvbVk5tUbfEVAnwRMbSxNwddLETdQNK5szfVuEqmL5NIJBJJIRakAZwmfNapBzBwnZrI+eOhXf/w/EjzCDP9KqPkrpXpyyQSiUSy1xM+64vHBj90wg/+/7tPKK7ahEQikUjecfwfc6u6+g4HgewAAAAASUVORK5CYII=;" vertex="1" parent="1">
          <mxGeometry x="129.01" y="250" width="77.24" height="20" as="geometry" />
        </mxCell>
        <mxCell id="uzLd8xs1DvLDweWQHwrh-5" value="" style="shape=image;verticalLabelPosition=middle;labelBackgroundColor=default;verticalAlign=middle;aspect=fixed;imageAspect=0;image=data:image/png,iVBORw0KGgoAAAANSUhEUgAAAHgAAAB4CAYAAAA5ZDbSAAAABHNCSVQICAgIfAhkiAAAAAlwSFlzAAAC/AAAAvwBpCekMAAAABl0RVh0U29mdHdhcmUAd3d3Lmlua3NjYXBlLm9yZ5vuPBoAACAASURBVHic7Z13fFRV3v/fN71XSIMkEJpA6EWRkgihSFGRIqKgzyKrKOuuylr20X1Wxd+Kru5acBFWLCBFQFF67y1AAqEFCJAECCQkpPdkzu+Pydy5d1pmkpmxsJ/Xa165955z7z2Tz3xP+bYjCSH4L6yHJEktgS5A14ZPa8AfCAACFX9dgVtAbsPnpuI4G9gphLjt8PY6mmBJkkKANkAMUA+UAeUGnzIhRKWD3t8RuKfh/YHoSfAHKoAc4Lri73UgRwhR1nB/G2A4MAJIAFraqWka4AiwCdgIpAgHkGFXgiVJCkX7jxgJ9AZi0f4zrYEGKATSgOMNn2PAJVu+eAMhU4EBDZ9Qa+81QAlQCrRq4v22Ig/YjJbs74UQtfZ4aLMJliSpBfAsMBboA7jYoV1KFAMpaMneDuwy/PKSJLkCY4Bn0P647N0GFby9vYmPjyc+Pp7w8HBCQ0MJDQ0lJCSE0NBQvL29KSwspKCggNu3b1NQUCB/zp07R0pKChqNxtIrMoBXhRBrmtvWJhPcQOwc4DnAz1JdX19fYmJi8Pb2pry8nLKyMsrLyykvL6e21uYfahGwDvge2ApMAOai7YJNom3btsTGxhIcHExISAjBwcEEBQVRUVFBfn4+t27dIj8/n7y8PDIyMqivr1fd36FDB+6//34GDBhAjx496NixI66urra2W0ZhYSG7d+9m+/bt7Nixg/Pnz5uruh94SQiR3NR32UywJEk+wOvAHzBBbEREBCNGjGDEiBF07tyZ2NhYQkPN95K1tbUy6ZmZmaSkpJCamkpKSgpnz56lrq7OUnNqAXfDix06dCApKYkhQ4YwePBgWrWyvpetqKggJSWFo0ePEhMTQ+/evWnbtq3V9zcF165dY8eOHXz55Zfs2bPHsFgAK4HXhBCZtj7bJoIlSYoGfgR6Ka8HBQUxe/ZsJkyYQI8ePZAkydZ2mERVVRWnTp0iJSWFnTt3snHjRsrKyszWT0pK4qWXXmLUqFF2eX9j0AhBSXkVxeVVFJdVUdRwXFVTi7+3J4F+XgT6eBHgq/34e3vS2L/myJEjzJs3j7Vr12LATTXwL+BNWyakVhMsSdI9wFogXHctODiYF154geeff57AwEBr39lkVFVVsW3bNn744Qd++uknCgoKABg5ciTz5s2jR48ejT6juraO4vIqyiqq8fbyIMjXC29Po07AJIQQXLtVzJajF9h/OpOM6/lU1VjsYVTwcHOlR7tI+neO4e67orkrNgwXM4ynpaUxa9YsDh48aFh0FHhQCHHDmndaRbAkSdOBhYCn7tqsWbN49913CQgwPUm+eD2ftEs3uJ5fwvX8YnLyS6jXaPDydMfH0x1vD3e8PfUfH0932kaGcFdMS1q3CGr0l15fX8/+/ftxdXVl0KBBRuUaIci4ls+xC9c4dv466VfzKCqrpKa23qiuh7srQX7eRIb4E982gvi2EXSPiyQ82PTUQgjYdSKDheuPkHG9wHJDLSDAx5O+nVpzd+cYhvftSICPp6pcCMGiRYt49dVXKSwsVBZdA8YJIU409o5GCZYk6RFghe7c3d2dTz75hKefftqobvK5q2xMTufw2Wzyi8sbe7dZ+Hl70Ck6jLtiWtI5JozucZFEtbButVVSXsXqvadYueskBSUVTW4DQHTLIIb37cDIfh1pF2U8jxACVuw6wSffH6CmzviHYwt8PN15eEg3pg7rSViQ+od18+ZNxo8fz+HDh5WXy4FHhRDrLD3XIsGSJMUBqTSsZUNDQ1m9ejWJiYmqeofOZrFoQzJpl6zqNZqE9q1CGdqrPYk929GxdQuj8qqaOv790yHW7D1lU7dpLdpFhfLIfT0YN6Az7m7qGfSFa/n85T+byLxZaOZu6+Hu5sq04b15anR/PNz176murmbGjBl8++23yuo1wP1CiJ3mnmeWYEmS3IEDQD/Qrv2OHDlCt27d5DrlVTW8/sUW9p260pzvZBP6dGzNR7MfwMvDTb6Wk1/C7I/Xkp1X5PD3hwX78cSIPowfFK8ioKqmjg++28sP+0/b5T0x4UH872ND6dOxter6O++8wxtvvKGcgBUDQ4QQaaaeY4ngD4AXdecLFy5k5syZcvm1W8W8+Nk6Lt9wuDpVRueYMBbNmagid9WeNN5fuQeNxrk69bioUP7+1CijrntnagZzl+ygpKK62e+QJJg55m5mjrlbNSf55JNPeP7555VVrwMDhBBXjZ5himBJkhKAXYAEMHnyZFauXCmXn8vO47mP1lJSXtXsL2Et/H08+fYvj6rG4mU7Uvlw1T6ntcEQHu6uvDBxMJMSuquu5xaWMuffGziXnWeX9wzr3Z43nxyh+mG/+uqrzJs3T1ntLFqSS5QXzRG8Dq3qkTZt2nDixAl5GVRWWcPUd5aRk19idJ8j8Y9nxpDYs518/t3uNN5bsdupbTCHhB5x/N/0JAJ8veRrJeVVzPxgDZdymj7LVqJLbBj/fuFhfL08AO0Me/r06SxdulRZ7TUhxLvKC0Y6W0mSYoHRuvO5c+eq1rjvLN3hdHLH3NNZRW7a5Rt8uGqvU9tgCXtOXmbK3GWkXLguXwvw9WL+Hx+iVQv76AfOZuXx5wUbqKvX6rAlSWLx4sX07NlTWe2ZBr28DFNK+ad118PCwpg0aZJcsO7QObYdv2iXBlsLVxcXZo7pL58Xllby6qJN8hf9pSCvsIxn/vk9m5L1euUWgb589qeHaBHoa5d3JKdf5c2vt6HrdN3d3Xn55ZeVVWLRGl1kqAiWJMkDeEp3PmPGDDw8dF0CLN541C4NtQWj7+5E65Z6Kfjo+/3kFZpXV/6c0AjB377axt40/aqiVYtAPn3+ISMlRlOxKfk8q/fqJ8wTJkwgPDxcWeU55YmhBE+iwaDt4uKiUmYkp2dz9ZbjlyFKuLq4MGO0Xnqv3ipi45F0p7bBVtRrNLy6aCPHL1yTr7VvFcpHf3gQT3c3C3daj+U7T8hS7OHhwVNPPaUsHt6gvwCMCX5EdzB69GhiY2PlgjV7T9mlcbbAUHr/s+Go05dDTUFNbT0vfLaes1n6WXS3thH8YfxAuzw/O7eI5PRs+XzixInKYgnoqDsxJFgese+//375Yn5xOXtOOk+ZAcbSm51XxKbkX7b0KlFRVcMfPl6r0hM8cl8Pene0j4PIgdOZ8nHr1q0Ni2W3IpngBt+paN15r156i2By+lXqLXsg2B3D+3YwkN7kX4X0KlFcXsXLn2+QDRySBH+bPhwfK61XlnC7VG8xDAkJwcVFJavGBKOQXhcXF5Xp7cK1/GY3yFYM691ePr52q5jNR816PfyikXmzkAXrDsnnUS0C+OMEY+uXrShUEOzi4mLoVGGZ4E6dOuHj4yMXXLh6q9kNsgVuri7cfZfcmbAzNeNXJ71KLN2eyqkrN+XzCUO60V/x/ZqCwjK1zb9FC5UBxjLByu4Z4LyTCe7ZPgqfBo0NwH7FePNrhEYjePPrbSpb9OxmTriKy9RqYgMJltdNJglWakdyC0spdqLOGWBgfBv5uKyyhpMZjjNDOguZNwtZuOGIfN4lNkz1PW2Fr7eH6tzAlUm2dCgJlmc0QUFB8sVrt4qb3IimQvnFj5zLdvoEz1FYvuOEygnh92PvbvKzQv29Ved5eSrDhjweKAmWp3Y67RVAbZ1z/7kRIf7ERYbI5/udaGt2NKpr6/h6y3H5vGubcO7tGmvhDvMI9tfPkYQQhgTn6g4aJdjZ0tMlNkx1npx+zUzNXye+33eK2wopfnJU3yY9JzRAT/Dt27cN3YtNEizr0ZQEO1up3yZCL71llTXkFpY69f2ORlVNHUu3p8rnvdq3IsyMc58lhCgIzs3NNSy2LMHu7vqFuLMJjg3Xj/+ZN53nLeJMbDqSLuuSJQmSenew+RlKC5UJguX+Wqn9/sVJcGPuQN6e7kQE+9MyyJfSimoycwuprLZLzFaz0aVNOIk94mjVIpBAXy+C/Lzw9/GkuLya/OIyqmpqZX/spD7tWbYjtZEnqtGhlX5ZdOWK0TxFnmQpCf5FjMFtIoLlY0MJbhHoS0KPOBJ7xtE1NlzlQQFak+aNghKOXbjGgp8Ok1fkXLOih7srT47sy9gBnYkKNe3m26oFgHqe0SnatohUD3dX2rfSKzaOHTumLC4DsnQnSoJlVZHSybpFgH2M1dYg0NdLdkkByLxZhIskkdAjjseSetGjXZRFh3hJ0qoCH2jRhcQeccxdupOdqRlOaDlEhvjz3jNj6BwT1nhlA9gaH3ZXdBhurvrR9ehRlZ0+RQghS6WS4Es0mJlOnz7NhAkTAGjXqqnhtbbDz1ttFI9vG84fJwwkNjzYzB3mEeDrxXtPj+bb7an8c7VjHfPCgvz4+tVHVBMfgIrqWk5k5HC7pIKiskrKqmoI8vWmZZAv8W3CCQ/xB7DZQb9rG72Bv6amhrQ0lcesim0lwadREKxDaIAPQX7eFJU5JABfBUPtzO/u72eyXnp2HnvTrnD5xm1yCkrIKywjLMiXtpGhJPRoy9BeekPFY0m92JN2WeUvZW/8aeIgFbmXcgr4fN1hDpzOorrWtBP+i5OGMHWYVmNoq4utkuC0tDRqamqUxRYJfhjg1Cm1cb9dVKjKQ8FR8PPyMFuWW1jKyl0n2XbsIjduGy+dCksrOZuVx4bD57i/fydee2yobJabNry3wwjuHhfJiL6yfZ1DZ7N4+fONtGoRwP89kUR0mHZVUFlVy5vfbOd6vlYzqHThKbWV4LZ6gg26Z7BAsMxqRkYG1dXVeHpqG+Esgv29jf2W8ovLmb/2IJuSzxvN6AN8vfjrtGEM6RGHiyRRWFrJtuMXWLzpGCt2npB7gEHxbWkbEcIVByy7hvbSe3tWVNXw1tfbcXd14b2nxxATFqQq69omXCbYv4kEB/h6Ed1S/1wDgm8LIS4rLyjXwXK/XF9fz7lz5+SC9k4ah2Mj1GPtuew8pv99JesOnTO5XIsI8SexZzs5BDPY35uHB3fjw2fHsWrPKWrr9Ib2R4f1NLrfHugWFykfHziTxa3ickoqqsm8eVuOkSoqq+TgmSy2Hrsg120qwXcbmBkPHTqkPFVNp0EtwRfRWiE8QdtN66xKpiLrHAHDZdEL89dZjFK8cPUW249fZFC3trLXf71Gw+WcAm4VlbH12AXG3NMZgLs7N8/+ag7K/805hQ/WnAUb6BobzvC+Hdh27KLKHgwQotAl2zK/GdJD9qcjIyOD9HSVG9Nhw/oywUKIekmSztFgNlROtJxFcHmVWknh7tp4LpW//Gczo/p3Yvb4eykqrWT3yct8uVn7Qz52/ppMcFRoIN6e7nZXhFRU1+DXMDlUBqNpNIJTV24aEatDRMMMGiDXSjdgVxcXlaVt3TqjyNGNhhcM/ThPY4JgP28PwoP9Ha4XrqxWzQbxtjDp0kEjBBuPpJt0p1WGjUgStI0M4WymkVqvWcgtLJPjeVta6eAe6OulijO6aWLSaAq9OkSpJmcGBN8EjJK1GIqIzKrRTLpVCI5GZbV6SeHt0Tw/4ss3bqNRKBHaO6AnUjrhtwyyzmgQrpBewGrBGdJd3z0XFRWxb59qfb/OVD4xQ4JlVq9evUpxsd7Y74h/jiEqDLrP5nofVtXUybNWcMxQoyQnLMg6CY4IVhNsrQQnKsbfTZs2GZoIfzJ1j1kJBjhz5ox87Kxx2N64pMihERdl/17o5m29BEe1CDSbVEWJiBC9pFdU11ql6GgXFaoKnTXonivQJokzgopgIUQ22hR+gLqbdgbBvl5qiS2vqjFT03rkFOgjIUMdoFfPytXr7QN8POljhWO7MgVEhZXfMUEhvXV1dWzatElZvFUIYdJxztQ0VZZiQwm2V2yNOfgaTKrK7ECw0n84yMD6ZA8cTb9KWaW+nSP7dWr0HmX9AB/r2jS2YTUAsGfPHoqKVHFiJrtnaIRgpRnK3c2V7nERVjWmqTDURZdXNp/gIoV7aZCft4WaTUNNXb3KYjW0VzuVpccUyir1XbKHu2ujgtOnY2tiFI4QixcvVhZrgPXm7jXVEnmxfPToUZU7pmFCEHvDx9OAYHtIsEKJ4OHuqlqe2AtKDVWArxf3dDGbNhOA0kr1mNtYaOnDg+Pl44KCAtasUeUo3SmEMOu4borgXbqDuro69u/fLxf06eRYgv281Y4G9kiHVFWjnpl7eTQ/LsgQyelXVbFCSuODKZQZ9EyGjgtKBPp6cZ9C3/3NN99QXa36gSy09C4jghsSXso+ILt2yXwT3ybcoeOwj2KSZY/uGdQqQV1uSXtDoxFsV2Q+GNqrvcXhoLRcLcGGQ5MSY+7pjIdiUrZo0SJl8S20uUPNwtxgIbOqJNi9Ideio6CcZNljggVq99Ki0kqV4sOeWHfwrHzs5eHGo0PNGzfyS9T6dUsaMGX3vH//fpURCPhKCGHxH9UowSkpKZSU6JcajhyHfb30Y5FhN9ZUKAnOb2ZqQ0s4l53HkXP6oOzJid1V8VVKVFbXqr5fSzMKkl7to1Q+agsXGvXGiwwvGKJRguvr69m7V5/Rxpp1XlOhXAfbY4IFavfSgpKm58+0Bos36Vcd/j6eTBzSzWzdPJUGzLSKc7xCeouKili9erWyeLcQotGMOCYJFkJcR2s+BNTddFcHjsPKtL6VVfax+oQqCS52nAQDHL9wjbTL+kC5x5N6qSxMSuQV6X9spnTYUaEBqsnakiVLqKxUmRUtTq50sLRgkxNcOmscVv5waixnercayi66udlnrcGXCikOCfBRjaFKKO3cof4+RuVPjuorr6c1Gg2ffvqpsrgA7ZYGjcISwTKrJ0+eVLnSDurWxppn2ww1wc1LzwtaxYYyUsJapX5zsP/0FVVGhBn39zc5FiuVIYbfNSLEn3ED9JqrFStWcOHCBWWVb4QQVrmBWCJ4t+5Ao9GwcaPelqzMOmdPKLsze0RU3NezHa6K3BWHzmZZqG0fCAGfrj0gnwf7e/PEiD5G9QL9FGkPK9RLtydH9pX11RqNhrlz5yqLa9Gm9rcKZgkWQuSi3bsIgO+/1/cIUaEBNnvjWwOl3ri1HVIAJvXRu8+mZ+c5Ldb54OkslZPi1GE9VUMFQKBCB630yQoL9uPBgV3k81WrVplaGmVjJRrziZF1Yps3b1YN8vc5QIrPX9X7NHVo3cIq05s5BPl501eheXN2CsaPv9dLsbenO0+Pu0dVrkpcqiD4yZF9ZOkVQvD2228rb6sF/p8t7WiM4B90BxUVFWzevFkuULqL2gvpilwg3p7uKgW7rRjaS90970hxTgiLDmcyc1XvfHBgF9X3CfRVSrC2i24Z6MtDg/STsjVr1qgsesASW7fWsUiwECIdkPsHZTcdFxXaLAJMIT37liqbzigrTG/mMFGRw/mcE7tnJeb/eFAO3nN1cWH2Q9rEK1EtAlRuszo99vSRfWS1pAnprQPesbUN1mwBJ7O6fv161U5l9u6mS8qr2Jum99ueMKSb2XWkJfTp2Fq1r8MP++yTZt9WZOcW8eMBvQpzaK92dG0TToLCt0oIrfdnVIsAJgzWK0bWrl1rGHO01NCp3RrYRHBRURE7d+r3f1DGANkLK3edlI+D/b15aKDpdaQlTFU4uZdUVP+sCUwXrj+iik+a9cAAkvroA75PXblBfnE5Lz+SKP+YhRC89dZbysfU0wTpBSsIFkKkAJm68x9+kIdlusSGm1WzNRVHz19TBX7/Yfy9Ng0FkSH+DO6u34ruxwNnHLILi7XILy5n1W69JN7TJUalKNqZeonEnu1UuoUvv/ySEydUWyItE0I0aRJh7S6dMqtr166Vd86UJMesiRf8pA/H8PZ0550Zo4y2sjGHkf07ybNvjRCs2mNyMxKn4uutx408RkHbu2xOPs+cyUPka7dv3+aVV15RVqsB3ja811pYS7DcTefm5qq2W5uYYF6h3lTsTL3ETwrzW+eYMD567gGr3GhH9tPrb4+lX3P69gOmUFhaydJtKUbXv9x0lCn39VBFObz22mvk56tyg35gjVHBHKwl+CCKzC3KjSDiIkMadVFpCt5fuUe1D1L/ztEseHGCxfT4cVGhdFCkNthy7ILZus7G4k1HuWKQc6SyupbHh/eWz5OTkw0N+tlot841giRJnpIktZUkqYskSWZ5tIrghpQAcje9ZMkSbt/WN9aScbupqKyu5U/zf1Lpj7vEhrH27Sd4QrGcUGKUQnpr6+rZ5aT0Ddagrl7Di5+tV+mdX5g0WGVQmDVrlmE6h+XAA5Ik/VmSpE8kSVorSVKKJEm3gCrgMnAGyJckaaUkSb9v2AFdhi27j3ZF4XH57rvvymOFEDDhb9+QnWv/lP9hQX4sf2OqSjEAkFdUxr60Kxw8k8XpKzeprKnjq5cnEdfgv7037QovfmZxW7+fBZMSuvPKo4lG1+fPn8/s2bPt8Yo8IFrn6WHr/sHbgCSA6OhoLl++jJub1gLkqH2Mpo/ozfMP255f+bMfD7H/1BWu3CyU44R/CXBzdWHlXx9T5R0pLCwkLi7O0Ne5OXhMCLEMbCd4DAof3JUrVzJ58mRA26WOfm2xzekILGFkv47M/d0oObNOZWUl169fp31769fftXX1pGbk8K/V+36WxOY6SBI8NDCeWQ/cY5SsRaPRMH/+fA4ePMjp06c5f/48tbW1eHh40Lp1a6Kjo40+MTExREdHU1BQwOLFi/n73/+ufOR+IcRgsJ1gCUinIVnLvffey4EDeqX6v9bsNzlbbAr6dmrNJ394UF4e1dXVMXbsWLZv385DDz3EAw88wKhRowgLsy5tUU1dPfOW7+bHA2car+wAvDwlgcmJjW9gDdpt7wsLC2nZsqXVu6m/9tprvPuuatOzeCHEGWtn0QA0hCd+rDs/ePCgKkfE5MTuuLg0f3v39q1C+cczY1Vr35kzZ7Jlyxbq6+tZs2YNTzzxBBEREfTu3Ztx48axbNkyi8/0cHPl9ceH0d2BXqHmMLJfRyNyi8oq2X3ikslM9u7u7oSFhVlNLmC05S/aDc6sXiYp8RUgDxYfffSRXBAVGqAKcWwKwoL9+Hj2gyon+DfeeIOvvvrKqK4QgtTUVLKzsxk3bpyq7Jutx/nd+6v4TqFFkiR4ZUpis8yQTcF0hcG/orqW1xZtYuTLXzBnwQZmvL+KPScvN5qVTyME+cXlnM3MZfeJS0bpmUykM7wANnbROkiS9D4wB7S/tqysLCIjtZJx+cZtps5d1iSPDD9vD7748yRVJOPChQtN7jauQ6tWrTh8+LBqa5mP1uxniWKoePbBAaqcW0/9YxUnnJRFvnXLQNa+/YR8/t6K3aofnRL+Pp60iwqVA/1uFZWRW1RGXmEZt4rKqddoCPT14uUpiSqFTnFxMT179iQzM1N3qRRoJYQobYoEA3yKVgFObW0tH3zwgVwQFxnSpHWxu5srH8waqyJ33bp1PPvss2bviYqKYsOGDSpyl+88oSIX4IuNR1U/uNH9O+MsdGyt9nzZlXrJbN3SimpOZOSwZu8plu1IZdvxi6RdusHN26UIBJMTe/DDW9NV5BYWFpKUlKQkF+ALIUQpNK2LRgiRBazVnX/88cecPatXLc4c09/qfBWg7TrffHK4yqn+yJEjTJkyhfp69RLH1dWVvn378v7775ORkaHa/mdv2mX+aWI/4eraOtVSqWeHKKvb1lwY5v5SxjBZAx8vD4b36cDy16fy8pQElSdIfn4+Q4cONUxGWgH8W3fSHAfnd4DxgEttbS3PPvssu3fvlhv1xvQk/jT/J6u2w/njw4NUPsAXL15k7NixVFRo3VxjYmKYOHEiQ4cOZdCgQartbnVIz87jf7/YYjI0JSTARxV0VmMmvaAjEK8IuRVos+levlGAuZHRw82ViBB/7ukSw5DucfTp2MqkoWXLli0899xzXLqk6hFKgDFCCFlH22SChRCpkiR9BswGbVDykiVLmDZtGgD3do3lTxMGN7rP79RhvVT62Ly8PEaNGkVVVRVPPvkk06dPJzEx0eKMcveJS7zz7U6TKZLc3Vx5Z8YoVZZaZ7jP6qBUqUrAyr8+Rm1dPbeKy8kvKqegtAJ/b09CA30IDfBtNJT08uXLvPjii/z4o1HMWSEwUghhNpVhU/A62h1LwwHmzJlDYmIi0dHapGNTh/Ukp6CYFTtPmrx55pj+Kme08vJyxowZg6+vL+fPnycqynxXWlNXz6EzWfxnQ7LZrdQlCf46PYl+BmGvlU60D5v6Xbq7uRIVGmA2p7QpZGdns2DBAj788EPD8FHQOsIPFUIYzd6aRbAQoliSpDnAEtBK34MPPsj+/fvlndPmTE4gvk0E7y7fJQdcebi5MueRBJXXf11dHZMnT+bYsWPs2LHDiFwh4NTlGySnX+VYQ4iIcqMpQ/h5e/DW/4xQpR7SwZmLJCWJGo3GcI9Bs9BoNCQnJ7Nu3TrWr19v6L6jxBrgpYZ5kRGaHWQkhFgqSdIk4AGA1NRUpk+fzqpVq+RudVT/TgyMb0NqRg4VVTUM6tZWtc6tqalh2rRpsnN9v37qNMLLdqSyfMcJk1lmDeEiSQzv24FnHxyg2l69pqZGzmRviwKhuVBmxpk3bx579uxRqRzDw8MpLCwkJyeHGzdukJOTQ05ODufOnTO0CxviDPBHIcQOS5XsFUX2OFqbcTxo3T2nTJnCwoUL5QmRv48nQxSuNDqUlpYyfvx4duzQtzM5OZlhw4bJ5xOHdCc0wJc9Jy+TkVNAdm4hdfUaJAk83Nzw8nCjbWQI/e+KZmS/jkYJxG/evMnFixcZPHgwYLrbdATc3VxV9uvTp0+zZcuW5j62BPgrMF8I0ehYYxeChRClkiQ9gDaVXguA7777jiNHjrB06VIGDTJtDbp06RKTJ08mJUW9bn3uuefYtm2bPJZ7uLsysl9Hef1Xr9FQV6/Bw82tUbJ27NjBY489poqtdZYERwT7q7RmBmtVW3Ae2ARsBvYJIayOorNbHKgQ4ookSQ83NMIHMN0VMQAABe9JREFUICsri4SEBJKSkkhISGDgwIEEBQWxb98+Vq9ezb59+2T/LiXOnz/PgAEDWLZsGUOGDDEqd3VxUTm1m0JWVhbz5s3j888/R6PRqAzpzuqgld0zWEVwDVo1cBFaUjcCm211dlfCroG+Qoh9kiT1B1YCXUE7Wdi6dStbt25t7PZitLPBOIDr16+TkJBA7969eeqppxgxYgRxcXEWpa+8vJw9e/awYsUKli9fbpjqT4azJFg5waqurubGDZV69F60vzUdoUW2SKa1sHsktxDijCRJ/dBanZ6y8rYbwEjgOloHvwRdQUpKiqyu9PPzIz4+ns6dO+Pi4kJ1dTVVVVVUV1eTn5/PsWPHVI75Bu2Sj50lwZGheme67OxsZRsKhRCHTN5kZzgkVF8IUQnMlCTpR+BJYABguKgtATag9fXarNOdSpI0AvgPMM3wuWVlZRw+fJjDh43yXlvTJsWJczw8lBJs0D2bXrg7AA7NTSiEWE+DB4gkSa3REt0LOABsM5UhpuHadEmS3gX+By3R4Yb1rMAp4DYNvYGSYOGkzb6UY7ABwU4LlHJs8kkFhBDXgFUNH2vqnwX+LEnSa8AQoDvaZVhXoBPaFH6VaJXrlWi9DC+iTT2xSwiRKUnS65ggWMJJBJuX4N8ewU1Fw1pvJ4qcITZANt2oumiN47toD3dXVXZbA4Lt735qBk21B/9aIM9K1WOw4yU4MiRAtUb/uST4jiFYBScQbGhI+C/BjoH8j1SNwU5YJymXSCbWwP8l2E6Q8/mrCXb811YaOgzWwKC13ToFv3WC5X9kVZU+VVFjak57QCnBJlSU5x3egAb81gmWZ6vKYLmQIOsN7U2FhSUS/Jdgu0GWYCXBwQH2zUpgChYILgeuOrwBDfhNEyyEKEebW0pNcKC/uVvsAi8PN1X8kQHBF0xtYOUo/KYJbkAhqAn29vJ0aOb6yBCLSySnZoS5IwkGda5IeyOyhbqH+C/BjsV50O5WooQjttjRoUus3jZSUVFhuAY+bnSDA3EnEHwc4No19Q7msWH2zdKnxL1dYuXjffv2KdfAlTRNp95k3DEE5+bmcv36dfli51jr4opthb+PJ/Ft9dEMBp4s2xts5U7DHUMwwPHj+t6xU2vH7MXY/65oVYy0AcFOTxrymydYCHETrSuQiuDOseEO0WgpE8Pl5OQoN9oWWNiCzlH4zRPcgOOgjVjUIcDXm+F9O5i9oSno0S5SlcpJmX4ZOCiEcE5QsgJ3CsGbQOsjrVyyTFMEvTUX7m6uvD5tmOyxWVVVZZgzo8npCJuDO4XgVUBdXV0d77//vnyxU3RLJljY28hauLq48OKkwbSN0G9A/eabb3LxopyBcKcQotkhDU1Bk1I4/BohSdJG4H4vLy8yMzMJD9euVes1Gp77aC3Hzl+z/AAziAkL4u3fjaBrG/3M+cSJE/Tr10/nly2Auw3DOp2FO0WCoSECsqqqihkzZsgRFa4uLrz3+9HERdq2/XuArxdTh/Vk2euPqsjVPV/hdP/9z0Uu3FkS7AIcBXoDvPLKK6oxsrq2joXrj7B2/xmKzexQGhbkR2LPOBJ7tqNPx1ZGs/ALFy7w+OOPK1NLnQMGCyEKDJ/lLNwxBANIkjQQkDdE/vbbb5k6daqqTl29hrTL2sQn+cXleLq7ERkaQOsWAbSNDDXr7rNgwQJeeuklOe0EWpPgQCGE00yDJiGEuKM+wLdox0Xh6ekpvvrqK9EcHD9+XIwePVrontnwyQfu+rm/qxDijiS4NdqIB5mQkSNHipMnT1pFaH19vdi7d6944YUXRJs2bQyJFcBhoOvP/T11nzuqi9ZBkqROaMNc2yivd+vWjYkTJ9K+fXsiIiIICwujrKyMzMxMsrKySE9PZ+PGjeTlmQwtKgP+F/hUCCf45VqJO5JgAEmSItDG3/Zq5qOuotUxvyfM5Mn4OXHHEgwgSZIH2vQTL9IQz2wlTgE/AmuFEE6179qKO5pgHRrSJI8CxgEd0Aahx6D157ra8MlGm/F+rWjCBlU/F/4/qq+RtVSEDv0AAAAASUVORK5CYII=;labelPosition=right;align=left;" vertex="1" parent="1">
          <mxGeometry x="205" y="204" width="30" height="30" as="geometry" />
        </mxCell>
        <mxCell id="uzLd8xs1DvLDweWQHwrh-21" value="" style="rounded=1;whiteSpace=wrap;html=1;" vertex="1" parent="1">
          <mxGeometry x="360" y="110" width="120" height="40" as="geometry" />
        </mxCell>
        <mxCell id="uzLd8xs1DvLDweWQHwrh-20" value="" style="shape=image;verticalLabelPosition=bottom;labelBackgroundColor=default;verticalAlign=top;aspect=fixed;imageAspect=0;image=data:image/png,iVBORw0KGgoAAAANSUhEUgAAArcAAACYCAYAAAD++MG9AAAAAXNSR0IArs4c6QAAAARjSUNQAQ0AAZxpOzIAACAASURBVHic7d1dbFtnmh/w/3NIfVoyGZMcndiT1aFkNfImrU66e7EFFmMGTdLcmXO1O9stTLdToGgLjKYf251tCystFp25KOLcFHOxA9NIdwZzUUS5KNDuFjANzAK9WxrYIPbEsuh8ma6kWLRkUxJ53qcXJGXZ1gcpnvd8kM8PGMBjS+/7xpTJ57znf54X8MnDrB33a27RIK+BEEIIIXoNeTXRw6wd33i8fQWMLBix5uwVEBbHTwzNv7RYXPdqLf3sy7dfy7HiBQZPtn6PCDeAyMIr/+dvCj4uTQghhBCia54Ut1++/ZrNihf3FlTPraJikJH59l9+UvRiPf3q87fP5aFw8aA/Nwzj0rf/8pO8h0sSQgghhHCV4cUkrDh/YGELAIwYK16U2+T6fPHWby4cVtgCgFLq6hdvvZ7xaElCCCGEEK7TXtx+/s65LIPnjvo6Bk8+flzL6l5PP3qYteMMnm/naxmqra8TQgghhAgi/Tu3inJtfymzFLcaPH5ce5pzPgrzhfvv2pbeFQkhhBBC6KG1uL3/rm2B+ULb38B8QaIJ7uv0oqFe38lpWooQQgghhFZai1un3nnMQKIJOnCmsy9HTssyhBBCCCE001rcMreX89xLognu+vydc+1HEpoYPCkPlgkhhBAijLQVt1+89Xrm0A4JB5FogrsYx7pYYHJyLq9ECCGEEEK7qK6BmZwc+Hjf24wm5N1cT986ZnELRvZh1o7L4RqiX5nmrGXUarYitlu/R8A6wyiWV+8UfFyaEEKIQ2gpbh9m7fjG5vax4wXNaELevRX1p8/fOZeF01kkYRcjJhcZot9Ylh3f2nw0D+Yc17YnHQB7L9Ibv3QwkUgDhI8JkStS6AohRLBoiSV01HpqPxJNcMdxd21b3646z0wLEVZmcmqhuvGoxMyXGTg6UsW4wOxcN5PpgmnOWvpXKIQQoh1ails3iiLpmuCCbotb8Jz0vBW9zrLsuJlMF5j5MsAdX5Qz4zzXdoqnE9PyniWEEAHgenF7/13baudEsqNI14TuHKdLwn7qtZrs3oqeZVl2vLpZKTDjfHcjccyB+shMTefcWJcQQojjc724da0Y6uTwB/GiLndtd4chlXNjHCGCqLpZyYPR9cV4Cyu+ciY1Yx/9lUIIIXQhtwf8/K1z627sGAIAIvjub/zFp4uujNVn5HXoP2bybKbxK5Vp/R6DbQIOyK9TofUrg6moiNYRjZbK5VslfasMDjM1nWOlrro+MOHmg9VlKXCFEMInrnZL6Orp/P00dh+lqOqQ66+DohzkdQiMZ1tUcYaZbIBjzM6+X39wRz7evRXvgBtfWGt0AiDCDTBKRFQ0KFL4auWzouv/IX5TakHLuIw5MzWdK68s5bWML4QQ4lDutgJTlDvso7RjLt1a7ztu/70xX7j/rm29/L+KJVfHFW07nZjOKqgsgMyLLapc/DfXGrGRQT3PzBcV1zGRmKqAuGCAChwdXAz77m5z17bzQ2baxKzmIW30umImz2aYnes6xiaKvCkt3ISfJhJp99+4IT/bLa5lbh9m7bjrOVlG7PN3zkmB2yFSlHF7TKcu3Su8djoxnZ1IphcnEml2oD5i4GJbLaq04BgYFxTz+1zbXp5IposvJ6fmw9oCi1np/XlmzFmWtDMUQgg/uFbcPt6s5dwa6xmye9uRL99+zT7WscdHYJaet14wzVlrIjF1ZSIxte5AfQRGMB+sZMy1Cl0zmS6ErUsAMbRnYrc2NyV3K4QQPnCtuNVW/Ehx2xFWyGkZFzz5xVuvZ3SMLRq3YCeS6UWubS8D/IPj9Fv1CzPOs1JXzUS6ZCanFsKwY+nNDvjTB/uEEEJ4x5XiVtduIQCJJnRMX39gJiena+x+ZSbPZhoHCDjXA7tL2yYGJpn5cnXjUWiKXCGEEL3HleJWQem9ZS27t23RepEBAIysHIvsDtOctcxEOs/sXO/+AIGg4dhukRuyuIIQQojw67q4bTxIprn4lOK2LboiCU8nQEyORe6emZxa4NpOkYGLfq9FL46xUlfNZLoQtIMNCLinfxajoH8OIYQQz+u6uH38uObKMa+HkmhCm/QfWcwsJ5Yd15nUjD2RTBeZ+XKYMrXdYsb5uqr/tZmcWvB7LXsUdE8wPDbWe72BhRAiBLruc+tZsSMHOhzqy7dfs5XGvp0tzDgvPW8793Jyar6u6u/7vQ4/MfPliWQ6G6VozvdDIQyjAKW07ZwT4UapVFzXNb5l2XEd3RgiROu+vzZCCNGlrorb++/aVq227U1eUKIJh9IeSdijXqvNA5DWYG2wLDte3azklds9oMOKMVdnp3A6MZ37em3Jt4vV8spS3kykF7R1TSAjr2Xcpq3NTVvHAQcOcANAxu1xhRDCS13FEppFjjcYsS/ffi1Qub1g0R9J8Geu8DLNWau6WSmEvQuC+zjmQH3kd0zBgKHl/YsIN+ToXSGE8E+XmVtvixwvdyfDRHuXhOcweFIy0Ic7k5qxubZTBGPO77UEFTNfNhPpvF/zf722tEjANXdHpQqiQzl3xxRCCNGJYxe3n79zLutlQdUgO4b78aXoV+T9nCFhJs9m6sop9NNDY8fFwEUzmS741RN3eDw2D8JNd0ajStSIZMrlWyV3xhNCCHEcx9+59aG4YfCkRBP240PRz3xBet6+yExN5xpZSCls28WM89XNii8FbqlUXB8Zi2W638FtFLbyMJYQQvjvWMVto7etPw/ISDThWffftS3vd9AbHm/Wcn7MG1SnE9NZVuqq3+sIJcZcdbNS8GPqUqm4Xl5bzpFhXAKo0un3E3BtZPykJYWtEEIEw7GKW3+LGokm7OXU/TtUgZmlY0LTmdSM7YDzfq8j1BhzfmZwyytL+ZHxkxYZxqWjowpUIeAaDQyly2vLOZ1tv4QQQnTmWK3AmDnn8jran7sZTfj2X34iuySQ1yIIzqRmbMnYuoOBixOJqfUHa3d9uXBqFql5APndXrLEFpitxlcYBekFK4QQwdZxcds8LMDXJ8Cb0YS+3zVs9hn29bVQUPNA/0ZFWn1sAc2n9PUV/oGZmi763U6rWegW/FyDEEKIznVc3DaLGZ9xFlLc+hpJ2MXIPsza8ZcW+/O2bHWzkg9quy8C7oFQAgAG1glUbPyabQIaD28xLG0HGXSBFV85k5opyg6pEEKITnUeSwjASWFyO7zBz0jC00Ug9vhxLYvGrdy+YianFjggJ48RcA9AAYZRAFOpvHqn0Mn3NzLDyoZSGQAZ/wtejtW5ngcg3VGEEEJ0pKPi9su3X8sppQJx+7XfowlBiCS0MKsc+qy4beRs65f9XQVVAOSjRiTf7Q5n8/uLaL6OzRxxjsBZ3wpdxpyZnFoor95d8GV+IYQQodRRt4RmERMQ/d01IRCRhCZmnL//rm35vQ6vWJYdd1R90a/5CbhHhnHpwdrd+IO1u/M6bt1/tfJZ8cHa3fny2rJFhnGpuTPsOWa+fCY1I7u3Qggh2tZ2cXv/Xdtixnmdi+lEvx/oEIhIwh71+k7O7zV4pbrxaMGP3cxWUVteW7a8fNiqvLKU97PIdbh+xes5hRBChFfbxW0gixdGxu8l+KF5cEMgIgm7uD86JjR2EfkHXs9LRO95XdQ+r7yylB8ej9kAfeDlvMw4b6amc17OKYQQIrzajyUEsHgJ2u6lV4IUSWhh8OTn75wL3Lrc5vkuIuFm1Ii+EZTcaalUXH+wdnc+AuO7xznN69iUWvBsLiGEEKHWVnH7+Tvnsn4d8XoYBs/1U9azJbBFfQA6aehkpqZznkZzCB+PjMUyQWyH9fXa0mLUiGSOPsnLHQxMyu6tEEKIdrS3cxvgoiWIu5g6Pcza8cBFEloULj7M2nG/l6GNh7uHBFx7sLqcDfKxrl+tfFYcGYt5VuDK7q0QQoh2HFncPszacShc9GIxxxHYXUxNmj1lA+vxZi3n9xp0MJNTnj1ERsC18tpyzou5ulUqFde9KnBl91YIIUQ7jixug16s9Fs0QXGwW6D14sWGZdlxZm96KoepsG0plYrrUYrmvMjgMgfhhEQhhBBBduQhDmEoVprRhJ5vF/Qwa8c3NrYDcSLWQRg812unx2093sgCrP3wkjAWti1frXxWNJNns8zOda0TMebOpGbsIOaQhRDHZ1l2fGtz85n2ngZzXBHbBlNRET0T0RoeGysGObbVa55/fVqvDWAU9n5dp6dj6nJocfvl26/ZSqlg5jv3YObcF2+93vMfdpubOxm/19AOBTUPBK+7xrF5kfUk3Bwei81jTftM2pRX7xQmElMf6G6VVldODi6cTrjfh6kbIkTrnRTfpjlroV63OpmDoGzueGVHYyBuJs9m3BgrKB9yIlhaR32zYpuIbTAsBiarGy/e+HEAgAEHDDz3A1/dqGAikW4cPU4oMVORDCpGYBTl4rd7pxPT2UbxyhlmsqsblWc2eFqvDeA8c1LnRCINgCpEXGSmYgRUGBwfL3h9IXJocds84jbwGDwH3TtGon0BfgCxU6cT01kHSnPWlioUHQz0w2PterB2d95MpLUe2UuN0wm7Lm63NjdtHTvNDnAD6KAHd30nx8wdHeWso7BtDjzHcO3vhFwaR4SYac5aVN/JKnAGTJm6qu8WSezCDzIDk2BMAnyeFaMOhYnEVAXEBQNU4OjgYrl8q9T9TL3vdGI665DKgXHBgdrzRtPpC8WxRmchPu+Af1DdqGAimb5pgPJevR6HZm6ZgnTcrggNRuzLt1/L+b0MNyjSn/E0CAs99eZLkZzO4RmYlCN5hQguy7LjLyen5ieS6SLXtpcV8/tgXPAi3tXAMTAuKOb3uba9PJFMF19OTs2b5qzlzfzhYqamc2YiXXKgPmq8Thow5va8Hotu3SE6yIHF7Zdvv5YDw6MfRNFrmMN/YWSas9qPnCbCjfurd3sqL15evVMgwg2dczSjCUKIADGTZzNmIp2vblQeNgvaYMQa9xRWZiKd111YhUXz9SqxUlc9PVKecYHZuW4m0wVdr8WBxW3Qn8oXwcaM86HvYuHFkdPRIf1z+CKyoHV44ozW8YUQbTOTZzNmMl1gdq4zgts6FAAYuKi7sAo6y7LjZiKdb75evh3QxYzzrdfC7btx+xa399+1LTAH+ql8EXx1L4pDnbR3CqEPeiqOsIf23VvGnGX18IEhQoSAac5au0WSl6c3umC3sEqk8/30XnImNWNXNyuFIF2EMON8XdX/2kxOLbg15r7FbeiLEhEMHI4HEvdzJjVj672ipcrI+MkFfeP7z2BDa9xCR6cDIUR7Xk5OzXNtpxikIuk4GLhY3XhUOp2Y7vm71WdSM3ZdOYXAxEWew8yXJ5LpohvZ6P1jCSEuSkRwMHjyi7dez/i9juPQnekkwpVe6I5wmK/Xlhb1HuygMvrGFkLsx7LsuJlMFxTz+949IKYbxxyoj8xEOu/3SnTZLWyD/pox5ri2U+w2MvJCcfvFW69nGOxbBkP0FqaQPvijO9MZHcxrHT848roGZrDs3ArhoTOpGXtro1IMWwShXQxcnEimi70WUwhNYbuLY8zO9W6OW3+hzy2Tk9PXRFH0HYWLD7P2/EuL4dmlNM1Zi2vb2m7bEHCtV7O2z4sakbzDdS1FKDOVdIwrhHjR6cR0tq6cPNDjXZQYc9XNSsGy7Ewv3F2zLDte3XhUCE9h+xQrddVMTaO8spTv9HufKW6bx7uGOj8jgufx41oWGnfwXOfUMlrHp0he6/gB0jwpKOP3OoQQx2empnOOUlf9XodneqjArW5WCgjxBclxC9xnYgk7vPP9gWHZthXuMSLA4An1H/xeR0eUviwnAffkWFIhRFicTkxnuZ8K2xbG3NZmZdHvZXTDTE4tBPXhsU40C9xcJ9/zTHEbf7n+n1JTCuasg1OvKJw4xZBiV3TCiADD44z4aYXUlIL5qoNTrzjT6//w3O/5vbYOZHQNzKBQv1kKIfrHmdSM7YDzfq/DL8w4P5GYCuUhO2dSM3anx3oHGSu+0kkv3N3i9tH3XvvdyABGAMAwGgVKzGwUKBMzDmKmwvC4FLriRZEB4MQp3lPMKozGn70wGhhQf+zjEttmmrOWzhZgUaN/IglCiPCyLDvuqPpiGLOa7uIfhPGwB4froSzKD8YxR9UX233Yb7e4pcH6vz7oi1rFy6lXGru68dNKdnT7nBF5WtC2Ln4O+5kYGMXrHi7v2IxaTeMT+FRpZlCFECLQtjYri36eXhUo7ITqoAczNZ3rxY4WDExWNyv5dr52t7gdHOF/0NY3GMBo/GlRc+IUw4gcc6UidIZONC9yXj26oN3LiHA0DNEERRrbSxEXtI0thBAueTk5Nd+LxdFxMTC5tflo3u91tE2pBb+XoA3jQjv52ygAVP/g3GRkwBnpdI7IABAzFca/BWw9ImysGHBqna9VBN9onDGeUogMHH+MSFT9PoBfurYoLfT1tzVABV1jCyGEG0xz1lK1nQW/5ifgHgglBtYJ9PROF7MFggWG1ujYQZgxb1l28A/fYSff6zvurPiKZdmLh70WUQCoRfifdVGz7O7mjsYdPFmXIrdXNKIHCicSDGP/s+w6EonS73Q/imYMS9fQBkUKusYWQghX1LYX4GHrKALuMWiRyFgcHhsrtlM8WpYd39nYyCioLIOy3uSCOdbcvV3QP9fxuVrYEm4S8PT18OnC4kUc29qoXAEOPk03CgAUwd9za0opcnvDiVOM8W8pV4ralsFhNeHeaHro/IcreVuxn/Lq3QV0+IFpJs9mmJ3rbq+FCDfKq8sZt8cV4dA4yaruSa97Aq6BIvlnWiOutve9zQJ4EcCiZdnxrc1H88yY113kNuYIdnF7XK2LjAioMDg+XjjsIqPRRUPZUCrj3cXFsxi4aCbP5g9qrRkFgIEBdr0PWqvIffxNo8hVjtszCB1aXTK6iR8cyABV/+Dc5MjPP72nYfSuNd/YtYxNhBtaBhZCCJfUub6gfRLCTUJk3q1+380ibMGy7Ctbm5VFvVlhjp1OTGe/XlvqmZaOjc+myMIzr8fa4d/T3Kgponk4k5mazkGpBe93dZ0FHNC60wAAYwBjuqY+cYrxrRkHo3HprhBkA8OMpKVw6hVNhW3TDuG7+kbvjsOs72lYRknb2EII0SXTnLXAuKBzDiJ678Hqsq3jIJtSqbheXl3OEHDN7bH3UlBZneN7hnCTKPJmeXU50+3rUV5ZypfXli0yjEsAVVxa4ZGYcf6gNm2N4jbC0f3+0C2GAcRPKyQtvYWTOJ7xVKOf8eCo/gsQI6oC/ASuvpPJQFTSNrYQQnSJazsauwFQhQzjUjOCo1V5bTkHwse6xm/chg83XRcZ5ZWl/Mj4SUvn3//zGM6+P7fGo++99rteLWJwlDEx42A8pbyaUhxiYLjR0m085eGuOtFL3k0WJEbB7xUIIcQhcroGjoBy5ZWlvK7xnzcyFsvp20HkWBgPdWjRfZFRKhXXH6wuZwH6QNccz2BcMM1Z6/nfNthQv+3JAvYYT7Hs4vqstVsrh3HswWz5vQQhhPDa6cS0toeCyDAueZ1RLZWK62SQtp1ogtJ42I8+ZBiXvLrIeLB2d74RU9Bvv7sOLj4L35nBUUZq2pEjfT1mRICk5fFu7R46Hl50DelrA6YjYyaEEG7QliMlfOzlju1ejXn17N4qjf3QdfGysG0pryzldWegm3LP/4ZvxS3QyOKeekUhZkpMwQtDJxoP93mRrRVCCBEShlEA6AMi3CDApW42VKHokN+neuV1DEpAaI7ibaAPfLvIWFvO6e8W1Ohisfd3tD5I1q4TpxiDowrffCF9cXUZT/m3WyuEECK49it8zqRm7EYHGZVhRpyI7U6a+BPhSrl8q+T2WjsRARUc8A/cHjdMRxMTcK+8dtffi4zoUA61naLOfrjNuw+78ZdAFLdA8+GmaQfrXxnY2iC/l9MzjEhjd1x2a4+m6w1LetwKIcJmz6Ezhef/rK3CNzqY92alBxscHy9UNzzrTBVMFMn5vYRy+Vbp5eTUgmK8r2uO57tYBKa4BZ7GFB5/Q6iUfU1M9IShE4yXXnH3lLFuKUVbfq9BNHta1uuW3+voVoRoXU5+E8JbRxW+APCVz7u2QOPBsolEWsvYZ1IzduDfewgfB+V5j/urd6+YifS8voMeGl0sWv+9gSpuW1oxhbV7crLZcQU1huA4uO33GgSA+k6OmS/7vYxuOcANHHBCjRDCe4Er+Ag3wXD9QWath/64JACZ52cZxgKUuqpreGaVRfOCyxhkfKRrom4MDDcefho6EbwCLcj87oYghBBCBAUB636vwQ9EuOF35vl5ze4JLj2wuA962sXCGPn5p/om6pJhAIlJJYc+tCkM3RDI4Tt+r0EIIYToZQYbV/xew36ISN+69uzQGwDg1FDVNpkLWoc+GBG/VxJcJ04xEpPBytfux1HG3/i9BiGEEP0hTJ0N3EMVrw/OaBdHB7Wuq3V6XLO4NQL/OOHgqMQU9tPqhhCWXsFBjcEIIYToLWZqOuf3GvxA4EAWtkCjcwIIH+ubQWWAVnEbkod8JKbwrIFhRmoqPKe8KYfqQY7BCCGE6A2WZceh1ILf6/CDASOwxS0AGKCCtsGZrcYcAFSNAv0X8TyJKTRiCKkphciA3ytpX72qMUguhBBCoHFremujUtTXdirYBsfHC36v4TAGRQraBidYQLO4jf35p4EMHh+mX2MKYYsh7KXqL/ZE7Avc+McmhBBCD9OctczUdM5MpgvMzvV+LWxBuFkqFQPdIaLRLo60xGFbGevdPrf1LVqPDge/b9terZhCpWzg8Te9f6rZwDDj1Cvh2q3dS9Wjeb/XcBgi3NDx8EHfvskKIYQGTw+hURkwW0ywubbtei/bMCJGsPoMH4CIi7oe9rMsO75b3NZ2UIgOI3vYNwRVzFQYOkFY/7p3D304cYpDuVvb4tRQPfmLT37l9zqEEEIEW+uJd4KyGYiD2QLBavwac1zbfvYb+usG7qGIKBTFLUAFgLUUt1ubm/Zuccs70f8K1EJZ3ALA8Hjj4apvvjBQ2+qdXVwjAsRPq9A8NHaQnSr9b7/X4CfTnLWC1lBbCCG81tp1bRWuDLYJiLcKVwBgbuxSPfOpF+6PQM8wjFAUtwZT0dH4ou4Wtyd/8cmvtv7pq6GLJuwVGQBSU70TUxgYZsRPMwaGw/+vunHxFHCMEqCpJ2K9bgEoaRlbCCECyEyezRCUzcw2CBYzzrd2Xfd+qoX/Ey5AotGS30tohyJa1/fCq0x07/+tb+F/RIfxT3RN55VeiCmMxhknzeAfytCO+hathyKSQFQCa/rXRo32JEII0asacQKVATjDjPPMe/bmpIL1RFjuEA6PjRWrG/qOWHimdBr78Pb3lUN1bbN5qBVTCNuuZyuGED/dG4UtAOxs0U/9XkM7tJ5BzlLcCiF6z+nEdNZMpPMTial1Zuc6M1/uz1PBRCd0d3SIPv8b20/or0bG9YR8vRa2mEIvxRBalEP1kx/e+pHf62hHI6uka6ufM5oGFkIIT5nmrMW1nXkAOQcq1vjd3vncCi3CTb+XEATMiL9Q3EZ36CIUlmEg+NVgm8IQU+ilGMJeOxu45vca2hUhWq/ren+WXrdCiJAzk2czDGeea9sX/F6LeJHWu48a6Gq/ScT2C6XUyM8/vVfdJI3n/vpjeJyRmFSB2xXtxRhCi1NDdezD29/3ex3tajSW1oOBScuyQ/uwphCif5nmrGUm0nlm5zoYUtiKwHth5xYAxq/d/u7OP3+1ZkR43z8Pq4FhRsJiPCobeLLu/8Z0L8YQ9traiPyJ32voFAH3dB26sLOxkQEQkKOujQKRt32TmfmypxMKIbr2cnJqXtV2FgDE/F6LEO06sHitVox/e+KU876Xi/GCYTR2SgdHCY8e+BdT6NUYQsvOE6McxmOdmVAE6yluFbGNgBS35dU7BcDb45AnEmkpboUICcuy41ublUXFvfEMjugvB5ZWsT//9Mr2RlhOuujcaNy/mELM7M0Ywi4Fpir9jt/LOA6Cvp95Bof2kJRunUnN2H6vQQjRnjOpGXtro6LteFQhdDu0vDJ2jGyvtAbbTyOmoDAa96bAbXVvOHGqN2MILU8eGT8Z+fmn9/xex/EYBW1DM+b6NXfrsJ7DYZh79wJcCD+cSc3YdeUUdMWz/EH6GqqKQDq0uB35+af3nlSMP/RqMX5oxRTipxWMiL55hscZqenw9d3t1PYGFcPS+ms/w2NjWoulrccbfbl7a2gqbonC9XSwEEHWKmwB7ol8LRFukGFcIjL68n038DR2ETryxnj8zz/95dY6/UzXAoJCZ0whZiqceqWHYwhN9S1aP5G//Ybf6+hGqVRcJ0DbrjOz6ss32Wbe2HVha30jRFBZlh2vcz0f5sKWgHsEXCPDuDQyHnupvLqcKa8s5f1el1eYKVTxL313B6jQVjeEsQ9vf/9x7tXfGhrX8wEVFG53U4gMAKdeCV77MR2cGqr82OiVn48CgItaRmZcsCw7rvt0lqBh6HnvaBy8IYToVnWzkgdjzu91tIsIN8AogagEGIXhsbHiM++rK/6tzT/hvTBxW9utvk7kb7/x5NKrdwbHeFrngvzWiikMDBMq5eNvtQ6PM+Jnen+3FgCgwNuVgXdO/uKTkOZsn2MYBSilp7gFsL35KAcgdJ0kukEMW8slXjRa0jGsEP3kdGI667AKXv9aws3G3RkqELDOMIqIRkvl8q3SC1+76v3ygigsmyeNCIy+R7o66mM7evX22X4ocAHgxCnG4KjCN18YcGqdfW/M7P2HxnYp8OZ65HvxX3zyK7+X4pbhE+OL1Y3KVV3jM/M8+qi4bRzVua3l9tO+H3JCiI4oKF/fjwi4x4Rio1uNUTiwgBVH2trctOFxm8fj0PWQMdCIq3V8SEM/FbgDw42HwNa/MrC1cXRMwYggkKeg6eLUUK1uRC7F//zTX/q9FjeVSsX1iWT6pq5bdAxMmsmzmWavqej56gAAEd5JREFU2Z5H9Z2sjn8RRLihYVgh+oqZms6xUt53RiDcNEB5jg4uSiHrImLL7yW0g6D03M1DI652rJvmo1dvn61uGH3xwWIYjdxszDz8NKehE4xvzfR+N4QWp4aqehQ512uFbYsByuudwVnQO35wKHBGx7jSBkwIFyi14N1kVAHoAxoYSj9YXbbvr969IoWtyzgcxS2z3me4jp0IHc/fyjxZN34Mhb6o5k6cYqSmFCIDL/7ZeEohMdkn+VoAO5u0NPTTX4+Gt5ft0Tg6qPUkMWacN5NnMzrnCALTnLV0nUVPhhS3QnTjTGrG9qqfLQHXRsZPWg/W7s5LQauTns0EtzFBW3FbXr1T6KocO/nhrR89+WbgO04NVbcWFWStmMLweKOeNyJA0lIYT/VFfQ8o8NY6/Wz06u2zfi9Ft3L5VgmEm3pn6YPd2/pOTtvYkYGCtrGF6AN15eT0z0IVosib5bXlXBgedAq7MLQDsyw7rq8zR+PAjq73Gk/+4pNfDf3016O9fFTvXq2YwqkphW/NOBgc7Y/C1qmhurke+d7Yh7e/7/davKI7msCM82ZqOqdzDj9Zlh1nxryOsQm4J7s/QnSHtB8JTpWoEemb5wuCgWNBP+58Z2Mjo2tsIi4CLhS3LSfyt9/ol5iCImD4txl4DYDGU82CYmeTlno5X3sQ3dEEAGDFV3r1SN6tzUfzGvsuFjSNK0RfMM1ZS28koVHYfrXyWV9sfAWJYifj9xoO42iMTrSexXA1JdoPMQU1Ahh/F8AoYIwD/HcAnPR7VZrsiSH0cr72IM1owsd6Z+FYdbOS1zuH93Tu2gKAAUP7hYcQvcyo1bTu7hHhihS2/lDgnN9rOIzOOwYGoQS4XNwCvR1T4DOA8bfxzG4tDQCYBfhlv1alRz/GEPZDiOjv/8i40GvxhK2NyhV9u7ZU+XptSYpbIbqg60hsoBkbWr27oGv8ThFUoG/Tu44xZ5qzlt/L2I+ZPJvRecfAoEgB0FDctvRSTIEB4HWAzhz8NfQKoGbQEzGFfo0h7Ke8eqdAgPZda1Z8Jeg5qXadTkxnWdfxxQAILIWtEN3S2DKKQYH6N8pAT0a/DqXzYd5usN6HGFt3C7Q2r+qFmIIaBOi3AIwe/bXGSyGPKfR5DOFAhrGgfxKO1ZVTCOrVdrtMc9ZywHmdc0gkQQgXECxtQ1PQ/o2Goz2Wm3TGwo7Lsuy41o2PPQf7aO/MGuaYAqcAw0ZHu7FhjSlIDOFg5ZWlvBe7twDHuL69GNYHzCzLjnN9e1HjQ2Qg4J5EEoQItuGxscB83jfz/+f9Xof3OBa0uFvjIWOdqND6lWfHDoQppsAAMAtQ+vhjhCmmIDGENniyewuAMVfdrBTCVuBalh2vblYK+noXNhCR/gy0EKIrQepnu/V4Q3O7swBTaiEonyWmOWvp3k2OUGR348PTM7XCEFPYjSG4EC0IfExBYght8273Fo0Cd+NRKSwZXK8KW4AqQ2Mn83rn6G99mU0UvY1Vzu8l+IWBSf27pe3h+rbGh4wbd/X2dufw/MDYIMcUjhNDOMpuTOG0e2O6QWIInTNgePgm0czgBuy20vPOpGZsbwrbRmuhIO0I9SQPXkchvGImz2b6M5LwFDNf9nuj5HRiOqvrGPaW5x9i9Ly4bQlSTMGNGMJR6NuAmkIgYgoSQzier9eWFvcG1vXjGCt11Uyk80G5tbTXy8mp+bpyPClsAaoMj52USIIHwv5Qo/Cf38XUU31wxHkb6lz37TPEsuy47oeMASBqRJ6Zw7fiFghGTMHNGMJRjCSgfhNtdV7QQmII3YsO5byekoGLWxuV4unEdCCyY6Y5a5nJdEExv6/zNtNesmvrIaeW8XsJItycAPSVfTk5Nd/vu7a7GHON3uPe2o2saf6ceD6SAPhc3AL+xhRU3P0YwlGMEQCvAzzh3ZyAxBDcUi7fKhHRe17Py8CkA/WRmUwXzOTZjNfzA82iNpHOc2172dsPDdm19VQfZxT7CjdOctIztr8/Q2dSM7ZiLPi5hqBh4KKZSOe9ms+7ZzEAEOWf/y3fi9sWL2MKDIDTgPG3dM90MJr0LqYgMQR3lVfvLoBw04+5mXGe2bk+kUwXzdR0zotbTWbybGa3qNXYo/AgEVBOdm29w4zzfl1ACQ8RlXQN7efPkGXZ8bpyCl7dVQoTrwpcTwtbAPttfgSmuAW8iSmoCEBzAKV0zdA+7TEFiSFoQ9GhLEAV3xbAmGOlrlY3Kg8nkulFtwvd04np7ERi6oqZSJeYnet+FLVAoym39LV9UXn1TkHrBOwEMuct3GOw7rul3uddTXPW8uI2eJgxcHEimS7qytabybOZrY1K0avCloBr+21+kBeTH8fj3Kt/PTTu7tnXKu7vbu1h+B5AD9wbz6mhWt2IXJLdWn3M1HSOlbrq9zr2arYrK4CoZDAVFdE6otFSuXyr9PzXmuashXrdavw/lQGzxQQ7OE/MU4UGBu391u6GxpPUznW3xyXCjfLqcsbtcZ83kZha1/ohTrgZpWju+SybV3S9PgBgEP2QYQSuY0/XDvi3vh/TnLW4tr2sczkEXCuvLed0ztFyJjVje7ljSxR5s5uLzIlE2ueH6alChCvl1bsLboxmWXa8uvFoAeAfuDFeu2hgKL3fz3xgi1sAePSPZv/L6En172B0t04GgHQwdmsPo1YB4x4Ap7txdjZpibaNvy+7tfqZiXTer13NXheB8V2du7ZhL27NZLrgRfaZgGsGjMXDXgvLsuNbm5s2oDLDYyddefhPZ3Hbq4jovU6KFe0XSPCmwDWTUwvMfFnnHM8Lf3HbQMA9IroyNHYyf5x/t42LpJ15ADmvd8wP+9mKermQTp388NaPHn3vtf85FKv9RWQAI8cZQ0UA43UAQy4vTgMjCagTgLEE4MkxBlDgJ4+Mn5z88NaP3F6b2F95bTk3kUwHaLezNxBwTeIIh2OmIsDai1sGLjpQFycSaYBwk4D1PX8Wbxw68jShs7W5WQBQ0L0u0T0CL+q+OGfgoplMW4gO5dy+C2OmpnNQaoGZJ90ct58wMMnM71c3Ku9PJNMfG6ACwygOj40V9yt2n97xUxkGZ7m27d9n38DQwkF/FOjiFmh0UwAwepyYQpBjCAcxRgB+FcDnAK21/31ODdXtysA7zb8v4aGRsVjGy/B8zyPcLK96cyszzCKgguPxLUAw5o7eblIZSHEbCgaMRQdK+50nZpxHbXvZTKSvYWBooZsi17Ls+Pbmoxwzz7NSUtS6iXFBgS8ADqobFUwkXmz+z7VtHxb2IiJ677Cfo8AXty0n8rffaDem0IohGAGPIRyEBgBMA2oMML7EkTGF7Q0qnsjffsOLtYkXlUrFddOczXJtpygPMnSHgHvDY7EMVv1eSfB9vba0OJGYqgTtZ47h7rMSQh+vf4YYuIja9sWJZPomgRYBo3DQDmHL3sgLwJnqRkV61/a5xufEySuHfU6EprgF2osphCmGcBRjAlCjzRzufjEFiSEERrl8q3QmNZORFjTdoErEiGSl7Vf7vLit3DGmjN9LEB3JA/DhDgDPAc7l3R3C5yIvYFgMTO6NvIjDEeHG8FgsW914VOrpzyGKHNkeMlCtwNpx2KEPahwwfgs9Udi2GOONmAInnv19p4bqk28GviOFbXB8tfJZMWpEMr62CAstqkSNSMavJ/NDi549cjIYOCZH+IYHDQwG44AUxlyjj3fzf4BEDo6hVCquG9TLB1jQB+08yBe64rZl76EPzAD/BmCc83tVetAAQNOAmgQQacQQhn7661HJ1wbPboHr0yEP4SSF7XGVV+8UiHDD73W8QI7wDY1y+VaJgGt+r0MXosibfq/Ba/dX717pyc8gws2R8ZML7XxpaItb4OmhD3wWW2T6vRr9jAS4Okz/TfK1wfbVymfFkbGYFLhtIOCeFLbdiiz4vYLnsZLcbZgMj8fme/KOE+Fj7QeeBBQhMu/3GtxFFYoOtR1bC3VxCzRiCoPzvx7Z/kL3aSv+ciqoPrk18J3xH9/+F36vRRytVCquP1hdtnt5R6RrhJvD4zFbCtvuBHH3lkiK2zAplYrrZFDPFUMjY7Gc36vwS+N9gd7zex3uaNzd66TLRuiL25YTf3L7jSe/Nn6MOgLRGNlNO/dpSd2PnDv5E4khhE15bTlHhnGpJ3dFukDAtQery7Y8POaS6FAuSD9jXhwuIdxVXlnKg/Cx3+twSwR05ENHva68enehF+4gkkHznW6C9ExxCwAn//OtHz25NfAdp4Kq32txRR28tUQ/G/2j22dH/lROGwur8spSXnK4LVQhw7jk1ZGc/aJcvlWKgHJ+r2MvM3k24/caRGdGxmK53nifog/kEJiGkbFYJkgXvp0iw7hUXlnKd/p9PVXcAsDJn3zyq6F/+evRsMcUnAqqm7cj3xtbuP19v9ciuvfVymfFB6vLdu/cJuocEW7QwKB9nDcqcbSv15YWDaIf+r2OFoKSaELIlErF9bA/L0DAtQdrd3ssYnF8pVJxPZxdfKhCFHnzuJ8XPVfctoQ5ptCKIcR//Okv/V6LcFd59e5C1Ii+EbSMpF7N3drV5Y4yU6Jz91fvXglKzptZcrdhFOYCl4BrclfoRWFrU9l60LibhwF7trgFGjGFzduR74UmpiAxhL7w1cpnxfLqciYC47sE9PTrTETvjYyftGS31jtPc96+y/i9AHE84Sxw6QMpbA/WKnAD/5lD+NiNB417urgFgPiPP/2luh85t3Oflvxey2EkhtB/vl5bWiyvLVtkGJcC/4bTIQKu0cBQurx6d6HfH+rwQ3llKd/o7+nfTg0Dk5Zlx/2aX3Sn1fEFoA/8XsvhGneGJIpwtK9WPisOj8fsYN45pIpB9MMHq8uunFLZ88UtAIz86af3Rv/o9tmtJfpZEGMKOw+MssQQ+ld5ZSm/W+QG8k2nXVQhovdoYChdXlvOSQTBX+XVO4WR8ZOWn0/Ab21uSjQh5B6s3Z0nirwZxAtwyfF3rlQqrpdXlzNBev6jsRkyaN9fvevaaXl9Udy2jC3c/n7QYgrVJVoc/Te3XpYYgiivLOXLq8sZGhhKN3ZLQpKPItxo7pzEy6t3F6SoDY7m7luWKPKmPxdOKuP9nMJt5dU7hfLastV4YNH/9yUC7kmOvzvl1bsLNDCU9nNDhQg3iCJv6tgM6aviFghOTEE9ofrmJ5HfH1+4/V0/1yGCp1y+VXqwdnf+wdrdeDOXey1ouyZEuGEQ/bARPVjOyM5JsJVX7xQauzWRNz194IzZ8mwuod391btXRsZP+hal2i1q15Ylx++CcvlWafd9wbMilypPY2vLXT00dugsOgYNi82FV/9seJL/MaLe/j3sPDDK9JB+R3ZrRSfOpGZsxU5GgTNgygAc82xywk0wFSKgwuD4eKEXcrSmOWuhvpNzfWCiUtA/eC3Ljm893shCqQyDsm79LDULngIMo4DIQKGb3Rhtr09PMwpeHjdrJs9mwE4OQIaBST2zUIXAi6BI/rj/bWZyasHdNQGIDua7+vnWsaYu33tMc9bi2s48gbPuvp5UAXGByFgcPjG+6MXnR18XtwCw/sfnfm/k287VSAwjXsxXXaJF2a0Vbmh8+NctQGXAbIFggWF19aZEuEnAOkAFAtYZRrFfz2bvJ6Y5axm1mq2I7d2fJQAv/Dzt/nwADKwTqNj6ORkeGyv2wkWPOJ5nLr4BC4y544xDwD0mFAlUjFBkUY7n9odpzlpwahkolQHB6uTUQSLcAKNEREWDIgU/XsO+L24BoPrvz03yS/x/ByeUqWsO9YTqT5aNP5SHxoRX2j4hKhotSW5NCOG2M6kZ22GOG8xxRfv3PW5dHAGN+IynCxQda72mz/9+hGg9SBciUtzusbHw6kcj05x1e1yJIQghhBBCeEOK2+es//G53xtNq/9ujHLUjfGqJePG+H+8lXFjLCGEEEIIcTgpbvfhSkyhDn58J/KvYn/6qWt924QQQgghxOGkuD3EcWMK9TVa5xXDlhiCEEIIIYS3pLg9QqcxBYkhCCGEEEL4R4rbNrQVU5AYghBCCCGE76S47cDmwqt/NpDkP9jbE1c9ofr2/6O/im7RRYkhCCGEEEIIIYQQQgghXPH/AY9tkA8G86PEAAAAAElFTkSuQmCC;" vertex="1" parent="1">
          <mxGeometry x="374.27" y="120" width="91.45" height="20" as="geometry" />
        </mxCell>
        <mxCell id="uzLd8xs1DvLDweWQHwrh-22" value="auth" style="edgeStyle=orthogonalEdgeStyle;rounded=0;orthogonalLoop=1;jettySize=auto;html=1;entryX=-0.013;entryY=0.496;entryDx=0;entryDy=0;entryPerimeter=0;" edge="1" parent="1" source="uzLd8xs1DvLDweWQHwrh-6" target="uzLd8xs1DvLDweWQHwrh-21">
          <mxGeometry relative="1" as="geometry" />
        </mxCell>
      </root>
    </mxGraphModel>
  </diagram>
</mxfile>
